<svg width="34" height="35" viewBox="0 0 34 35" fill="none" xmlns="http://www.w3.org/2000/svg">
<g clip-path="url(#clip0_1944_2834)">
<path d="M15.74 0.570306C14.7556 0.832788 13.8238 1.42994 13.1873 2.20426C12.6295 2.88015 12.2949 3.62167 12.0783 4.65191L12.0455 4.83565H8.33794H4.63037V8.57603V12.3164H5.15534H5.6803V9.10099V5.88558H8.85634H12.0389L12.1111 6.25962C12.367 7.58516 13.1282 8.75977 14.2176 9.50128C14.8409 9.92125 15.2872 10.0919 16.3305 10.315L16.5077 10.3478V11.3321V12.3164H17.0327H17.5511L17.5708 11.319L17.5905 10.3215L18.017 10.2428C18.5682 10.1378 19.0735 9.9475 19.5656 9.65221C20.189 9.27817 20.1825 9.29786 19.8544 8.87132C19.6969 8.67446 19.546 8.49072 19.5197 8.47103C19.4869 8.45791 19.3032 8.54322 19.1129 8.67446C18.6076 9.00912 17.8923 9.2388 17.2492 9.28473C15.3594 9.40285 13.627 8.097 13.1873 6.23337C13.0495 5.63622 13.0954 4.69128 13.2923 4.12038C13.627 3.16888 14.421 2.29613 15.3462 1.86303C15.9631 1.56774 16.3371 1.48243 17.0064 1.48243C18.0695 1.48243 18.9882 1.8696 19.7559 2.63736C20.5303 3.40512 20.9043 4.29756 20.9109 5.36718C20.9109 6.194 20.6746 6.98801 20.2415 7.60484C20.1693 7.69671 20.1169 7.8017 20.1169 7.84108C20.1169 7.87389 20.294 8.03794 20.504 8.20199L20.8912 8.51041L21.0618 8.28074C21.4621 7.76233 21.9542 6.49585 21.9542 6.0037C21.9542 5.89214 22.092 5.88558 25.1368 5.88558H28.3194V9.10099V12.3164H28.8444H29.3694V8.57603V4.83565H25.6749H21.9805L21.8755 4.35662C21.6392 3.29356 21.1668 2.46018 20.3859 1.73835C19.815 1.21339 19.3557 0.937781 18.6273 0.681861C18.1089 0.498123 17.9579 0.478437 17.1311 0.458751C16.383 0.445626 16.1271 0.465313 15.74 0.570306Z" fill="#00FFD1"/>
<path d="M17.545 4.81607L16.2457 6.11536L15.6879 5.55758L15.1301 4.99981L14.7561 5.38041L14.3755 5.75444L15.3139 6.68626L16.2457 7.62463L17.9321 5.93818L19.6251 4.24517L19.2642 3.88426C19.0674 3.68739 18.8902 3.52334 18.8705 3.52334C18.8508 3.52334 18.2537 4.10737 17.545 4.81607Z" fill="#00FFD1"/>
<path d="M0.233887 18.1896V23.1439H5.18825H10.1426V18.1896V13.2352H5.18825H0.233887V18.1896ZM3.18682 15.7616V17.2381H5.18825H7.18968V15.7616V14.2851H8.14118H9.09268V18.1896V22.094H5.18825H1.28382V18.1896V14.2851H2.23532H3.18682V15.7616ZM6.13975 15.2366V16.1881H5.18825H4.23675V15.2366V14.2851H5.18825H6.13975V15.2366Z" fill="#00FFD1"/>
<path d="M2.20264 18.616V19.141H3.21976H4.23688V18.616V18.0911H3.21976H2.20264V18.616Z" fill="#00FFD1"/>
<path d="M2.20264 20.5847V21.1096H3.21976H4.23688V20.5847V20.0597H3.21976H2.20264V20.5847Z" fill="#00FFD1"/>
<path d="M12.0454 14.7445V16.2537H12.5704H13.0953V15.2694V14.2851H14.0468H14.9983V15.7616V17.2381H16.9998H19.0012V15.7616V14.2851H19.9527H20.9042V18.1896V22.094H16.9998H13.0953V19.6332V17.1724H12.5704H12.0454V20.1582V23.1439H16.9998H21.9541V18.1896V13.2352H16.9998H12.0454V14.7445ZM17.9513 15.2366V16.1881H16.9998H16.0483V15.2366V14.2851H16.9998H17.9513V15.2366Z" fill="#00FFD1"/>
<path d="M23.9229 18.1896V23.1439H28.8772H33.8316V18.1896V13.2352H28.8772H23.9229V18.1896ZM26.9414 15.7616V17.2381H28.91H30.8786V15.7616V14.2851H31.8301H32.7816V18.1896V22.094H28.8772H24.9728V18.1896V14.2851H25.9571H26.9414V15.7616ZM29.8287 15.2366V16.1881H28.91H27.9913V15.2366V14.2851H28.91H29.8287V15.2366Z" fill="#00FFD1"/>
<path d="M25.8916 18.616V19.141H26.9087H27.9258V18.616V18.0911H26.9087H25.8916V18.616Z" fill="#00FFD1"/>
<path d="M25.8916 20.5847V21.1096H26.9087H27.9258V20.5847V20.0597H26.9087H25.8916V20.5847Z" fill="#00FFD1"/>
<path d="M14.0142 18.616V19.141H15.0313H16.0484V18.616V18.0911H15.0313H14.0142V18.616Z" fill="#00FFD1"/>
<path d="M14.0142 20.5847V21.1096H15.0313H16.0484V20.5847V20.0597H15.0313H14.0142V20.5847Z" fill="#00FFD1"/>
<path d="M0.233887 29.0497V34.0369H5.18825H10.1426V29.0497V24.0625H5.18825H0.233887V29.0497ZM3.18682 26.5889V28.0654H5.18825H7.18968V26.5889V25.1125H8.14118H9.09268V29.0497V32.9869H5.18825H1.28382V29.0497V25.1125H2.23532H3.18682V26.5889ZM6.13975 26.064V27.0155H5.18825H4.23675V26.064V25.1125H5.18825H6.13975V26.064Z" fill="#00FFD1"/>
<path d="M2.20264 29.509V30.0339H3.21976H4.23688V29.509V28.984H3.21976H2.20264V29.509Z" fill="#00FFD1"/>
<path d="M2.20264 31.4776V32.0026H3.21976H4.23688V31.4776V30.9526H3.21976H2.20264V31.4776Z" fill="#00FFD1"/>
<path d="M12.0454 29.0497V34.0369H16.9998H21.9541V29.0497V24.0625H16.9998H12.0454V29.0497ZM14.9983 26.5889V28.0654H16.9998H19.0012V26.5889V25.1125H19.9527H20.9042V29.0497V32.9869H16.9998H13.0953V29.0497V25.1125H14.0468H14.9983V26.5889ZM17.9513 26.064V27.0155H16.9998H16.0483V26.064V25.1125H16.9998H17.9513V26.064Z" fill="#00FFD1"/>
<path d="M14.0142 29.509V30.0339H15.0313H16.0484V29.509V28.984H15.0313H14.0142V29.509Z" fill="#00FFD1"/>
<path d="M14.0142 31.4776V32.0026H15.0313H16.0484V31.4776V30.9526H15.0313H14.0142V31.4776Z" fill="#00FFD1"/>
<path d="M23.9229 29.0497V34.0369H26.3836H28.8444V33.5119V32.9869H26.9086H24.9728V29.0497V25.1125H25.9571H26.9414V26.5889V28.0654H28.91H30.8786V26.5889V25.1125H31.8301H32.7816V29.0497V32.9804L32.2764 33.0001L31.7645 33.0197L31.7448 33.525L31.7252 34.0369H32.7816H33.8316V29.0497V24.0625H28.8772H23.9229V29.0497ZM29.8287 26.064V27.0155H28.91H27.9913V26.064V25.1125H28.91H29.8287V26.064Z" fill="#00FFD1"/>
<path d="M25.8916 29.509V30.0339H26.9087H27.9258V29.509V28.984H26.9087H25.8916V29.509Z" fill="#00FFD1"/>
<path d="M25.8916 31.4776V32.0026H26.9087H27.9258V31.4776V30.9526H26.9087H25.8916V31.4776Z" fill="#00FFD1"/>
<path d="M29.8096 33.0329C29.7834 33.0526 29.7637 33.2888 29.7637 33.5578V34.0369H30.2886H30.8136V33.5119V32.9869H30.3346C30.0655 32.9869 29.8293 33.0066 29.8096 33.0329Z" fill="#00FFD1"/>
</g>
<defs>
<clipPath id="clip0_1944_2834">
<rect width="33.5978" height="33.5978" fill="white" transform="translate(0.233887 0.439087)"/>
</clipPath>
</defs>
</svg>
