<svg width="36" height="35" viewBox="0 0 36 35" fill="none" xmlns="http://www.w3.org/2000/svg">
<g clip-path="url(#clip0_1065_2502)">
<path d="M17.0561 0.248149C16.0534 0.515534 15.1042 1.12383 14.4558 1.91262C13.8876 2.60114 13.5467 3.3565 13.3261 4.40598L13.2926 4.59315H9.51583H5.73901V8.40339V12.2136H6.27378H6.80855V8.93816V5.66269H10.0439H13.286L13.3595 6.04372C13.6202 7.39401 14.3956 8.59056 15.5052 9.34592C16.1403 9.77374 16.5948 9.94754 17.6577 10.1748L17.8382 10.2082V11.2109V12.2136H18.3729H18.901L18.9211 11.1976L18.9411 10.1815L19.3756 10.1013C19.9372 9.99433 20.4519 9.80047 20.9532 9.49967C21.5883 9.11864 21.5816 9.1387 21.2473 8.7042C21.0869 8.50366 20.9332 8.31649 20.9064 8.29643C20.873 8.28307 20.6858 8.36997 20.492 8.50366C19.9773 8.84457 19.2486 9.07854 18.5935 9.12533C16.6684 9.24565 14.9036 7.91541 14.4558 6.01698C14.3154 5.40868 14.3622 4.44609 14.5627 3.86453C14.9036 2.89526 15.7125 2.0062 16.655 1.56502C17.2834 1.26421 17.6644 1.17731 18.3462 1.17731C19.4291 1.17731 20.365 1.5717 21.1471 2.35381C21.9359 3.13591 22.3169 4.04501 22.3236 5.13461C22.3236 5.97687 22.0829 6.78571 21.6417 7.41406C21.5682 7.50765 21.5147 7.6146 21.5147 7.65471C21.5147 7.68813 21.6952 7.85525 21.9091 8.02237L22.3035 8.33654L22.4773 8.10258C22.8851 7.5745 23.3864 6.28436 23.3864 5.78302C23.3864 5.66938 23.5268 5.66269 26.6285 5.66269H29.8705V8.93816V12.2136H30.4053H30.94V8.40339V4.59315H27.1766H23.4132L23.3062 4.10518C23.0656 3.02227 22.5843 2.17332 21.7888 1.43801C21.2072 0.903242 20.7393 0.622488 19.9973 0.361788C19.4692 0.174619 19.3155 0.154565 18.4732 0.134511C17.7112 0.121141 17.4505 0.141195 17.0561 0.248149Z" fill="#F5F5F5"/>
<path d="M18.8944 4.57306L17.5709 5.89662L17.0027 5.32843L16.4345 4.76023L16.0535 5.14794L15.6658 5.52896L16.6217 6.47818L17.5709 7.43408L19.2888 5.71613L21.0135 3.9915L20.6458 3.62385C20.4453 3.42331 20.2648 3.25619 20.2447 3.25619C20.2247 3.25619 19.6164 3.85112 18.8944 4.57306Z" fill="#F5F5F5"/>
<path d="M1.26038 18.1963V23.2432H6.30727H11.3542V18.1963V13.1494H6.30727H1.26038V18.1963ZM4.26846 15.723V17.2271H6.30727H8.34608V15.723V14.219H9.31535H10.2846V18.1963V22.1737H6.30727H2.32992V18.1963V14.219H3.29919H4.26846V15.723ZM7.27654 15.1883V16.1575H6.30727H5.338V15.1883V14.219H6.30727H7.27654V15.1883Z" fill="#F5F5F5"/>
<path d="M3.26575 18.6308V19.1656H4.30186H5.33798V18.6308V18.096H4.30186H3.26575V18.6308Z" fill="#F5F5F5"/>
<path d="M3.26575 20.6363V21.171H4.30186H5.33798V20.6363V20.1015H4.30186H3.26575V20.6363Z" fill="#F5F5F5"/>
<path d="M13.2927 14.6869V16.2244H13.8275H14.3623V15.2217V14.219H15.3315H16.3008V15.723V17.2271H18.3396H20.3784V15.723V14.219H21.3477H22.317V18.1963V22.1737H18.3396H14.3623V19.667V17.1602H13.8275H13.2927V20.2017V23.2432H18.3396H23.3865V18.1963V13.1494H18.3396H13.2927V14.6869ZM19.3089 15.1883V16.1575H18.3396H17.3703V15.1883V14.219H18.3396H19.3089V15.1883Z" fill="#F5F5F5"/>
<path d="M25.3918 18.1963V23.2432H30.4387H35.4856V18.1963V13.1494H30.4387H25.3918V18.1963ZM28.4668 15.723V17.2271H30.4722H32.4775V15.723V14.219H33.4468H34.4161V18.1963V22.1737H30.4387H26.4614V18.1963V14.219H27.4641H28.4668V15.723ZM31.408 15.1883V16.1575H30.4722H29.5363V15.1883V14.219H30.4722H31.408V15.1883Z" fill="#F5F5F5"/>
<path d="M27.3972 18.6308V19.1656H28.4333H29.4694V18.6308V18.096H28.4333H27.3972V18.6308Z" fill="#F5F5F5"/>
<path d="M27.3972 20.6363V21.171H28.4333H29.4694V20.6363V20.1015H28.4333H27.3972V20.6363Z" fill="#F5F5F5"/>
<path d="M15.2981 18.6308V19.1656H16.3342H17.3703V18.6308V18.096H16.3342H15.2981V18.6308Z" fill="#F5F5F5"/>
<path d="M15.2981 20.6363V21.171H16.3342H17.3703V20.6363V20.1015H16.3342H15.2981V20.6363Z" fill="#F5F5F5"/>
<path d="M1.26038 29.2595V34.3398H6.30727H11.3542V29.2595V24.1792H6.30727H1.26038V29.2595ZM4.26846 26.7527V28.2568H6.30727H8.34608V26.7527V25.2487H9.31535H10.2846V29.2595V33.2702H6.30727H2.32992V29.2595V25.2487H3.29919H4.26846V26.7527ZM7.27654 26.218V27.1872H6.30727H5.338V26.218V25.2487H6.30727H7.27654V26.218Z" fill="#F5F5F5"/>
<path d="M3.26575 29.7273V30.2621H4.30186H5.33798V29.7273V29.1925H4.30186H3.26575V29.7273Z" fill="#F5F5F5"/>
<path d="M3.26575 31.7327V32.2675H4.30186H5.33798V31.7327V31.1979H4.30186H3.26575V31.7327Z" fill="#F5F5F5"/>
<path d="M13.2927 29.2594V34.3397H18.3396H23.3865V29.2594V24.1791H18.3396H13.2927V29.2594ZM16.3008 26.7527V28.2567H18.3396H20.3784V26.7527V25.2486H21.3477H22.317V29.2594V33.2702H18.3396H14.3623V29.2594V25.2486H15.3315H16.3008V26.7527ZM19.3089 26.2179V27.1872H18.3396H17.3703V26.2179V25.2486H18.3396H19.3089V26.2179Z" fill="#F5F5F5"/>
<path d="M15.2981 29.7273V30.2621H16.3342H17.3703V29.7273V29.1925H16.3342H15.2981V29.7273Z" fill="#F5F5F5"/>
<path d="M15.2981 31.7327V32.2675H16.3342H17.3703V31.7327V31.1979H16.3342H15.2981V31.7327Z" fill="#F5F5F5"/>
<path d="M25.3918 29.2594V34.3397H27.8986H30.4053V33.805V33.2702H28.4333H26.4614V29.2594V25.2486H27.4641H28.4668V26.7527V28.2567H30.4722H32.4775V26.7527V25.2486H33.4468H34.4161V29.2594V33.2635L33.9014 33.2836L33.38 33.3036L33.3599 33.8183L33.3399 34.3397H34.4161H35.4856V29.2594V24.1791H30.4387H25.3918V29.2594ZM31.408 26.2179V27.1872H30.4722H29.5363V26.2179V25.2486H30.4722H31.408V26.2179Z" fill="#F5F5F5"/>
<path d="M27.3972 29.7273V30.2621H28.4333H29.4694V29.7273V29.1925H28.4333H27.3972V29.7273Z" fill="#F5F5F5"/>
<path d="M27.3972 31.7327V32.2675H28.4333H29.4694V31.7327V31.1979H28.4333H27.3972V31.7327Z" fill="#F5F5F5"/>
<path d="M31.388 33.317C31.3612 33.337 31.3412 33.5777 31.3412 33.8517V34.3397H31.876H32.4107V33.805V33.2702H31.9227C31.6487 33.2702 31.408 33.2902 31.388 33.317Z" fill="#F5F5F5"/>
</g>
<defs>
<clipPath id="clip0_1065_2502">
<rect width="34.2253" height="34.2253" fill="white" transform="translate(0.803955 0.114258)"/>
</clipPath>
</defs>
</svg>
