<svg width="35" height="35" viewBox="0 0 35 35" fill="none" xmlns="http://www.w3.org/2000/svg">
<g clip-path="url(#clip0_1065_2526)">
<path d="M4.99339 1.37072C4.23803 1.48436 3.54283 2.21299 3.54283 2.89482V3.08867L2.39308 3.11541C1.36364 3.13546 1.2099 3.14883 0.969252 3.28253C0.614967 3.46969 0.307474 3.80393 0.140359 4.17158C0.00666631 4.47239 -1.83117e-05 4.54592 0.00666631 17.2066C0.00666631 27.1132 0.0200356 29.9675 0.0868818 30.0477C0.253997 30.2683 0.454536 30.3084 1.39707 30.3084H2.3396V31.3045C2.3396 32.2871 2.3396 32.3005 2.5134 32.4743L2.69388 32.6481H10.5884H18.483L18.7838 32.8553C19.245 33.1695 20.1608 33.6107 20.7892 33.8379C22.9617 34.6 25.1876 34.6267 27.3601 33.9115C30.9832 32.7283 33.6036 29.5932 34.1584 25.7763C34.2654 25.041 34.2052 23.0289 34.0581 22.3537C33.4097 19.4192 31.5982 16.9726 29.0313 15.5622L28.3428 15.1878L28.3294 9.75992C28.3094 3.69028 28.3495 4.17158 27.8214 3.61676C27.4203 3.20231 27.0393 3.10204 25.8427 3.10204H24.82L24.7799 2.84134C24.7331 2.48705 24.5459 2.1194 24.2785 1.84533C23.336 0.909485 21.5512 1.37741 21.2972 2.63412C21.1902 3.14215 21.2972 3.10204 20.0472 3.10204C18.9709 3.10204 18.9175 3.09536 18.9175 2.96835C18.9175 2.9015 18.8573 2.67422 18.7771 2.47369C18.3493 1.32393 16.8452 0.969646 15.9161 1.80523C15.5885 2.09935 15.3078 2.63412 15.3078 2.96835C15.3078 3.09536 15.2543 3.10204 14.1781 3.10204C12.928 3.10204 13.035 3.14215 12.928 2.63412C12.781 1.89881 12.039 1.34399 11.19 1.35067C10.2943 1.35735 9.55899 1.98571 9.44535 2.84134L9.40524 3.10204H8.24881H7.08568V2.9015C7.08568 2.78786 7.03889 2.58732 6.98541 2.45363C6.65118 1.66485 5.87576 1.24372 4.99339 1.37072ZM5.71533 2.77449C5.83566 2.88813 5.84903 3.00846 5.86908 3.87077L5.88913 4.84004H5.32094H4.74606V3.95099C4.74606 3.37611 4.77949 3.00846 4.83296 2.9015C5.00676 2.56059 5.43458 2.50042 5.71533 2.77449ZM11.6179 2.80792C11.7582 2.96166 11.7649 3.03519 11.7649 3.91088V4.84004H11.1967H10.6285V4.01115C10.6285 3.56328 10.662 3.09536 10.7021 2.97503C10.8491 2.56059 11.317 2.47369 11.6179 2.80792ZM17.3332 2.64749C17.6206 2.79455 17.6407 2.89482 17.6474 3.88414V4.84004H17.1126H16.5778V3.88414C16.5845 2.9015 16.6046 2.80123 16.8787 2.64749C17.0525 2.54722 17.1527 2.54722 17.3332 2.64749ZM23.2558 2.66754C23.5299 2.80792 23.5967 3.0753 23.5967 4.01115V4.84004H23.0285H22.4603V3.91756C22.4603 2.93493 22.5071 2.76113 22.8213 2.63412C23.0151 2.5539 23.0419 2.5539 23.2558 2.66754ZM3.47599 4.88684C3.47599 5.17427 3.50941 5.52187 3.54952 5.65557C3.66315 6.0767 3.80353 6.11012 5.31426 6.11012C7.079 6.11012 7.079 6.11012 7.08568 5.05395V4.37212H8.25549H9.4253V5.05395C9.43198 6.11012 9.43198 6.11012 11.1967 6.11012C12.6607 6.11012 12.8345 6.07001 12.9615 5.70236C13.0016 5.58204 13.035 5.23443 13.035 4.93363V4.37212H14.1647H15.2944L15.3211 5.08069C15.3412 5.76252 15.3479 5.79594 15.5284 5.94969C15.7155 6.11012 15.7356 6.11012 17.1126 6.11012C18.4896 6.11012 18.5097 6.11012 18.6969 5.94969C18.8774 5.79594 18.884 5.76252 18.9041 5.08069L18.9308 4.37212H20.0605H21.1902V4.93363C21.1902 5.23443 21.2237 5.58204 21.2638 5.70236C21.3908 6.07001 21.5646 6.11012 23.0285 6.11012C24.7932 6.11012 24.7932 6.11012 24.7999 5.05395V4.37212H25.7893C27.1863 4.37212 27.0994 4.24511 27.1262 6.28392L27.1462 7.84812H14.1781H1.20321V6.3374C1.20321 4.8133 1.22995 4.6395 1.46391 4.45902C1.53744 4.40554 1.87836 4.3788 2.52677 4.37212H3.47599V4.88684ZM27.1395 11.899V14.7467L26.9925 14.7065C26.0098 14.4191 25.6155 14.3723 24.2317 14.3723C22.6608 14.3656 22.233 14.4258 20.9897 14.8402C15.3679 16.7119 12.5738 23.1091 15.0203 28.4969C15.1406 28.7643 15.2409 28.9983 15.2409 29.0116C15.2409 29.025 12.0858 29.0384 8.22207 29.0384H1.20321V19.0449V9.05135H14.1714H27.1395V11.899ZM24.9002 15.6023C27.1529 15.8162 28.9711 16.6852 30.522 18.2895C32.514 20.355 33.3562 23.1225 32.8482 25.9434C32.1062 30.1079 28.4096 33.1895 24.1849 33.1828C21.5178 33.1762 18.8974 31.8994 17.2864 29.8071C16.5912 28.9114 16.2035 28.2095 15.8693 27.2202C15.281 25.5022 15.2409 23.6573 15.7423 21.9192C15.9695 21.1171 16.6046 19.8336 17.0926 19.1786C18.6033 17.1464 20.9295 15.8296 23.3962 15.6023C23.7103 15.5755 24.0111 15.5488 24.0646 15.5421C24.1181 15.5421 24.4991 15.5689 24.9002 15.6023ZM16.4107 30.7162C16.5979 30.9435 16.7984 31.1975 16.8653 31.2844L16.9923 31.4448H10.2676H3.54283V30.8766V30.3084H9.81301H16.0765L16.4107 30.7162Z" fill="#F5F5F5"/>
<path d="M4.49216 11.565C3.87049 11.8725 3.53625 12.434 3.53625 13.1627C3.53625 14.2121 4.25819 14.9341 5.30768 14.9341C5.86919 14.9341 6.21679 14.7937 6.57107 14.4394C6.92536 14.0918 7.039 13.8244 7.07242 13.2763C7.11253 12.6747 6.98552 12.3137 6.61118 11.926C6.23016 11.5383 5.88256 11.3912 5.30768 11.3912C4.93334 11.3912 4.76623 11.4247 4.49216 11.565ZM5.54164 12.6947C5.81571 12.8351 5.92266 13.1292 5.78897 13.3832C5.66196 13.6306 5.36784 13.7576 5.14056 13.6707C4.68601 13.4969 4.6459 12.902 5.0804 12.6814C5.29431 12.5744 5.31436 12.5744 5.54164 12.6947Z" fill="#F5F5F5"/>
<path d="M10.5417 11.4914C9.89996 11.7187 9.42535 12.4339 9.42535 13.1626C9.42535 13.8177 9.7529 14.3792 10.3478 14.7468C10.6954 14.9607 11.5043 14.9941 11.9053 14.8203C12.5939 14.5129 12.9883 13.9112 12.9883 13.1626C12.9949 12.1331 12.2529 11.3911 11.2302 11.3978C10.9896 11.3978 10.6821 11.4379 10.5417 11.4914ZM11.6179 12.835C11.7917 13.0356 11.8051 13.2428 11.658 13.45C11.4107 13.811 10.896 13.7642 10.7289 13.3698C10.4882 12.7949 11.1968 12.3671 11.6179 12.835Z" fill="#F5F5F5"/>
<path d="M16.344 11.5517C15.7357 11.8324 15.3079 12.5009 15.3079 13.1627C15.3079 14.1453 16.11 14.9341 17.1127 14.9341C18.3962 14.9341 19.2384 13.7175 18.7839 12.5076C18.4296 11.5717 17.2731 11.1105 16.344 11.5517ZM17.5004 12.8151C17.8213 13.1092 17.5673 13.6841 17.1127 13.6841C16.6582 13.6841 16.4041 13.1092 16.7317 12.8151C17.0058 12.561 17.2197 12.561 17.5004 12.8151Z" fill="#F5F5F5"/>
<path d="M4.7394 16.1706C3.56959 16.5449 3.13509 18.1158 3.95061 19.0383C4.29821 19.426 4.65918 19.6198 5.14716 19.6599C5.90252 19.7335 6.61109 19.3257 6.92527 18.6439C7.3464 17.7481 6.92527 16.5984 6.03621 16.2307C5.6953 16.0837 5.09368 16.0569 4.7394 16.1706ZM5.68193 17.5075C5.9961 17.8417 5.76883 18.4099 5.32096 18.4099C4.98004 18.4032 4.6926 18.0757 4.78619 17.7882C4.91988 17.3471 5.3878 17.2 5.68193 17.5075Z" fill="#F5F5F5"/>
<path d="M10.7489 16.1439C10.1807 16.2776 9.63929 16.8057 9.48554 17.3672C9.38527 17.7416 9.44544 18.39 9.61255 18.7175C10.281 20.0277 12.2597 19.9609 12.8546 18.6106C13.0351 18.2095 13.0351 17.541 12.8546 17.1399C12.507 16.3645 11.6113 15.9367 10.7489 16.1439ZM11.5043 17.4274C11.6447 17.5343 11.765 17.7683 11.765 17.9287C11.765 18.1426 11.4642 18.41 11.2235 18.41C10.7289 18.41 10.4949 17.775 10.8693 17.4809C11.0698 17.3271 11.3439 17.3004 11.5043 17.4274Z" fill="#F5F5F5"/>
<path d="M4.57906 20.977C3.89054 21.2912 3.53625 21.846 3.53625 22.588C3.53625 23.6308 4.27825 24.3795 5.32105 24.3861C6.04967 24.3861 6.66466 23.9784 6.97215 23.2965C7.13258 22.9356 7.10584 22.1802 6.93204 21.8126C6.5176 20.9636 5.43469 20.5759 4.57906 20.977ZM5.78897 22.3941C5.89593 22.6548 5.83576 22.8888 5.6018 23.0492C5.17399 23.35 4.61916 22.8888 4.8197 22.4008C5.00019 21.9663 5.60849 21.9663 5.78897 22.3941Z" fill="#F5F5F5"/>
<path d="M10.4949 20.9567C9.11788 21.5783 9.05772 23.5436 10.4013 24.1987C11.6179 24.7936 12.9816 23.9647 12.995 22.6278C13.0016 21.8323 12.5471 21.1706 11.8318 20.9166C11.4308 20.7762 10.8559 20.7895 10.4949 20.9567ZM11.5979 22.2535C11.7784 22.4273 11.8051 22.5944 11.6915 22.8417C11.6112 23.0155 11.3773 23.1559 11.1567 23.1559C10.9495 23.1559 10.6954 22.8618 10.6954 22.6144C10.6954 22.1332 11.257 21.9059 11.5979 22.2535Z" fill="#F5F5F5"/>
<path d="M23.3294 16.7122C21.9992 16.9595 21.578 17.0865 20.8227 17.4542C19.6662 18.029 18.4429 19.0852 17.7945 20.0812C15.5953 23.4369 16.2838 27.929 19.3788 30.3755C20.7892 31.4919 22.3735 32.0467 24.1516 32.0467C26.3375 32.0467 28.1757 31.2913 29.6865 29.7672C30.5087 28.9317 31.117 27.949 31.4846 26.8461C32.3937 24.1254 31.732 21.124 29.7867 19.0852C28.6971 17.9488 27.3201 17.1734 25.8027 16.8392C25.3214 16.7322 23.6703 16.652 23.3294 16.7122ZM23.5968 18.6307C23.5968 19.2323 23.6168 19.3392 23.7305 19.4662C23.9912 19.7403 24.4056 19.7403 24.6663 19.4662C24.78 19.3392 24.8 19.2323 24.8 18.6307V17.9421L25.0874 17.9822C26.4645 18.1962 27.6543 18.7911 28.6637 19.7737C29.8068 20.8834 30.4953 22.3139 30.5956 23.7711L30.6357 24.3594H29.9338C29.2854 24.3594 29.2252 24.3727 29.0849 24.5198C29.0046 24.6067 28.9244 24.7805 28.9044 24.9075C28.8709 25.088 28.8977 25.1749 29.0447 25.3487C29.2252 25.5626 29.2252 25.5626 29.8803 25.5626H30.5421L30.4084 26.0305C30.2279 26.6789 30.1009 26.9931 29.7667 27.5747C28.9177 29.0654 27.4404 30.1884 25.7693 30.6095C24.7465 30.8702 24.8 30.8969 24.8 30.1349C24.8 29.4196 24.7465 29.2659 24.4457 29.1389C24.165 29.0252 23.8909 29.0787 23.7305 29.2926C23.6168 29.433 23.5968 29.56 23.5968 30.1148C23.5968 30.8769 23.6436 30.8435 22.8682 30.6763C20.9497 30.2753 19.2317 28.9183 18.3828 27.1402C18.1822 26.719 17.848 25.7431 17.848 25.5827C17.848 25.5693 18.1421 25.5626 18.5031 25.5626C19.1248 25.5626 19.1716 25.5492 19.3253 25.3888C19.5593 25.1415 19.5459 24.7337 19.2986 24.5198C19.1248 24.3727 19.0512 24.3594 18.4095 24.3594H17.7076L17.741 24.1388C17.7611 24.0251 17.7945 23.731 17.8146 23.4971C17.8948 22.6615 18.336 21.5318 18.9242 20.6762C19.6328 19.6267 20.9363 18.6507 22.1663 18.2496C22.4738 18.1494 23.296 17.9622 23.5166 17.9488C23.5767 17.9421 23.5968 18.1226 23.5968 18.6307Z" fill="#F5F5F5"/>
<path d="M27.3001 21.5652C27.1931 21.6454 26.4845 22.2337 25.7225 22.8687L24.3388 24.0252L23.9377 23.4302C23.3561 22.5679 23.1489 22.4342 22.7211 22.6548C22.5206 22.7618 22.3936 22.9824 22.3936 23.2431C22.3936 23.4102 23.7037 25.4089 23.8709 25.5025C23.9377 25.5359 24.0981 25.5626 24.2251 25.5626C24.439 25.5626 24.6663 25.3955 26.3174 24.0185C27.3402 23.1695 28.2092 22.4075 28.256 22.3273C28.6103 21.7123 27.8749 21.124 27.3001 21.5652Z" fill="#F5F5F5"/>
</g>
<defs>
<clipPath id="clip0_1065_2526">
<rect width="34.2253" height="34.2253" fill="white" transform="translate(0 0.695801)"/>
</clipPath>
</defs>
</svg>
