<svg width="67" height="67" viewBox="0 0 67 67" fill="none" xmlns="http://www.w3.org/2000/svg">
<g clip-path="url(#clip0_1719_1071)">
<path d="M12.6235 0.246095C12.4032 0.375703 12.0792 0.686763 11.9107 0.933019L11.5996 1.36073V18.5468V35.7329L11.9625 36.1995C12.4291 36.8216 12.9864 37.0938 13.7381 37.0938C14.6713 37.0938 15.4879 36.5624 15.7989 35.7329C15.9026 35.4736 15.9415 30.5226 15.9415 19.817V4.27691H40.3856H64.8298L65.3223 4.00474C66.0481 3.58999 66.398 2.87714 66.3332 1.95693C66.2684 1.08855 65.9314 0.518273 65.2704 0.207213C64.8686 0.0128 62.5616 -0.0001608 38.921 -0.0001608C13.7252 -0.0001608 13.0123 0.0128 12.6235 0.246095Z" fill="#00FFD1"/>
<path d="M63.3131 7.17955C62.8335 7.39988 62.4058 7.85351 62.2243 8.33306C62.1207 8.59228 62.0818 16.7965 62.0818 35.3953V62.0816H45.7641H29.4594L29.0187 62.3797C28.7854 62.5353 28.4484 62.8722 28.2799 63.1185C28.0207 63.4944 27.9818 63.7017 28.0207 64.3498C28.0725 65.27 28.4095 65.8273 29.0835 66.1513C29.4853 66.3458 31.0795 66.3587 47.3323 66.3328L65.1276 66.2939L65.5294 66.0088C66.4237 65.3607 66.3588 67.8622 66.3588 36.6395V8.46267L66.0737 8.03496C65.9052 7.80167 65.6201 7.49061 65.4257 7.34804C64.985 7.01105 63.8444 6.92033 63.3131 7.17955Z" fill="#00FFD1"/>
<path d="M56.6393 11.6772C56.4578 11.742 54.9932 13.1289 53.3731 14.736L50.431 17.6781L49.4849 16.7708C48.3443 15.6692 47.9166 15.4229 47.0742 15.4229C45.9077 15.4229 45.0912 16.2395 45.0004 17.4578C44.9615 18.1317 45.0004 18.2743 45.3504 18.8057C45.5707 19.1297 46.5298 20.1536 47.4759 21.0868C48.9146 22.4995 49.2905 22.7847 49.77 22.9143C50.3662 23.0569 51.0272 22.9791 51.5197 22.7069C51.6623 22.6291 53.5027 20.8276 55.6153 18.702C59.711 14.5805 59.8665 14.3731 59.6851 13.3751C59.4258 11.9624 57.9742 11.1588 56.6393 11.6772Z" fill="#00FFD1"/>
<path d="M19.5695 15.6952C18.7789 16.0192 18.2734 16.7969 18.2734 17.6912C18.2734 18.5077 18.5975 19.1298 19.2196 19.5446L19.751 19.8945H30.8973H42.0566L42.5491 19.5835C43.236 19.1558 43.5859 18.417 43.5211 17.5357C43.4563 16.7969 43.1971 16.3433 42.588 15.8896C42.238 15.6175 42.1214 15.6175 31.0658 15.5915C23.8207 15.5786 19.7769 15.6175 19.5695 15.6952Z" fill="#00FFD1"/>
<path d="M56.6399 27.6193C56.4584 27.6841 54.9938 29.0709 53.3737 30.6781L50.4316 33.6202L49.4855 32.7129C48.3449 31.6113 47.9172 31.365 47.0748 31.365C45.688 31.365 44.7677 32.5833 45.0399 34.0479C45.1177 34.4626 45.4547 34.8644 47.0877 36.5234C48.1764 37.6251 49.2263 38.6101 49.4336 38.7138C49.9262 38.973 50.9112 38.973 51.4037 38.7138C51.6111 38.5971 53.5033 36.7697 55.616 34.6441C58.571 31.6761 59.4913 30.6651 59.6209 30.2892C59.919 29.3301 59.4653 28.1896 58.584 27.723C58.1044 27.4638 57.1713 27.4119 56.6399 27.6193Z" fill="#00FFD1"/>
<path d="M19.2973 31.5337C18.6104 31.9873 18.2734 32.5965 18.2734 33.3482C18.2734 34.1648 18.6623 34.8776 19.3103 35.2405C19.8028 35.5127 19.8287 35.5127 30.9103 35.5127C41.9918 35.5127 42.0177 35.5127 42.5102 35.2405C43.223 34.8387 43.5859 34.1129 43.5211 33.2316C43.4563 32.4799 43.1971 32.0262 42.588 31.5726C42.238 31.3004 42.1214 31.3004 30.988 31.2615L19.738 31.2356L19.2973 31.5337Z" fill="#00FFD1"/>
<path d="M3.43462 38.5842C3.01987 38.8045 2.82546 39.0119 2.54032 39.5433C2.24222 40.0617 0 49.8861 0 50.6248C0 51.8302 0.881337 52.6726 2.13854 52.6726C2.87731 52.6726 3.59015 52.3227 3.94009 51.7783C4.05674 51.5969 4.6011 49.562 5.13249 47.268C5.66388 44.9739 6.13047 42.9909 6.16936 42.8613C6.2212 42.7058 6.37673 42.641 6.75259 42.641C7.15438 42.641 7.25807 42.6928 7.25807 42.8613C7.25807 42.9909 7.05069 44.7924 6.8174 46.8791C6.48042 49.7305 6.40265 50.7674 6.49338 51.1173C6.8822 52.5301 8.52823 53.1392 9.82431 52.3357C10.589 51.8691 10.6927 51.4932 11.2241 46.8791L11.7166 42.641H12.2739H12.8312V46.6199C12.8312 49.1214 12.8831 50.8063 12.9738 51.1303C13.4922 52.9837 16.1362 53.2429 16.9787 51.5062C17.2249 51.0137 17.2379 50.7156 17.2379 46.8143V42.641H17.8082H18.3785L18.4562 43.1853C18.4951 43.4964 18.7025 45.3109 18.9228 47.242C19.1432 49.1603 19.3894 50.9488 19.4542 51.2081C19.6097 51.8431 20.4263 52.569 21.1002 52.6856C22.2408 52.867 23.4591 52.0505 23.6406 50.9877C23.7183 50.573 23.2777 46.1404 22.8629 43.1853L22.7981 42.628L23.3554 42.6669L23.9127 42.7058L24.8978 46.918C25.4421 49.238 25.9476 51.2858 26.0254 51.4673C26.2068 51.9339 26.8808 52.4523 27.477 52.6208C28.9415 53.0096 30.4061 51.6617 30.1339 50.1712C29.8488 48.6029 27.7103 39.7118 27.5418 39.4007C27.4381 39.1934 27.127 38.8693 26.8678 38.6879L26.3753 38.3639H15.0994C4.964 38.3768 3.78456 38.3898 3.43462 38.5842Z" fill="#00FFD1"/>
<path d="M56.6388 43.5603C56.4573 43.6251 54.9928 45.0119 53.3727 46.6191L50.4306 49.5612L49.4066 48.5632C48.2791 47.4745 47.968 47.306 47.0607 47.306C46.0628 47.306 45.1814 48.0448 45.0259 49.0168C44.8444 50.1055 44.987 50.3388 47.0867 52.4644C48.1754 53.5661 49.2252 54.5381 49.4326 54.6548C49.8992 54.901 50.936 54.901 51.4156 54.6418C51.61 54.5381 53.5023 52.7107 55.6149 50.5851C58.57 47.6171 59.4902 46.6061 59.6198 46.2302C59.9179 45.2711 59.4643 44.1306 58.5829 43.664C58.1034 43.4048 57.1702 43.3529 56.6388 43.5603Z" fill="#00FFD1"/>
<path d="M32.7778 47.2161C32.2723 47.5531 31.7539 48.4733 31.7539 49.0565C31.7539 49.5879 32.2464 50.534 32.7 50.8581C33.05 51.1173 33.2574 51.1302 37.5733 51.1691L42.0707 51.208L42.5114 50.9099C43.1983 50.4304 43.4575 49.9897 43.5223 49.1602C43.5612 48.5251 43.5223 48.3307 43.2631 47.9548C43.0946 47.7086 42.7577 47.3716 42.5244 47.2161C42.0837 46.918 42.0448 46.918 37.6511 46.918C33.2703 46.918 33.2185 46.918 32.7778 47.2161Z" fill="#00FFD1"/>
<path d="M4.40616 52.7114C3.91365 52.9058 3.44706 53.3594 3.22672 53.8389C3.00639 54.3315 2.98047 54.7721 2.98047 59.4899C2.98047 64.5576 2.98047 64.6224 3.27857 65.1926C3.4341 65.5167 3.75812 65.9055 4.00437 66.061L4.44504 66.3591H14.8656C26.4007 66.3591 25.8563 66.398 26.4785 65.5296C26.7636 65.1278 26.7636 65.076 26.8025 59.6065L26.8414 54.0982L26.5433 53.6575C26.3748 53.4112 26.0378 53.0743 25.7915 52.9058C25.4157 52.6466 25.2213 52.6077 24.5862 52.6466C23.7567 52.7114 23.316 52.9706 22.8494 53.6575C22.5513 54.0722 22.5513 54.15 22.5513 58.0771V62.082H14.9692H7.38715V58.2197C7.38715 53.9167 7.33531 53.6186 6.46693 53.0095C6.03923 52.6984 4.84683 52.5299 4.40616 52.7114Z" fill="#00FFD1"/>
</g>
<defs>
<clipPath id="clip0_1719_1071">
<rect width="66.3595" height="66.3595" fill="white"/>
</clipPath>
</defs>
</svg>
