<svg width="67" height="67" viewBox="0 0 67 67" fill="none" xmlns="http://www.w3.org/2000/svg">
<g clip-path="url(#clip0_1719_1088)">
<path d="M30.0702 0.19431C21.529 1.65888 15.1653 8.1393 13.8822 16.6805C13.7914 17.2378 13.7396 19.817 13.7396 23.0961C13.7396 28.3193 13.7525 28.6045 14.0118 29.1618C14.4135 30.0561 14.8672 30.5615 15.6319 30.9893L16.3317 31.391V32.5705C16.3317 33.5555 16.3836 33.8795 16.6428 34.4239C17.3168 35.8755 18.5999 36.6791 20.2459 36.6791H21.2309L21.7623 37.6511C22.0604 38.1955 22.6826 39.0898 23.1362 39.6601L23.9786 40.6969L22.8899 42.8743L21.8012 45.0388L18.3277 46.1923C13.1045 47.9291 11.2122 49.0048 8.68486 51.6747C5.48353 55.0575 3.61717 59.3994 3.4098 63.8968L3.33203 65.6465L3.69493 65.9965L4.05784 66.3594H33.1808H62.3038L62.6667 65.9965L63.0296 65.6465L62.9519 63.8968C62.7445 59.3994 60.8781 55.0575 57.6768 51.6747C55.1494 49.0048 53.2572 47.9291 48.0339 46.1923L44.5604 45.0388L43.4717 42.8614L42.383 40.6969L43.0051 39.9322C44.6252 37.9881 45.6103 35.8625 46.1287 33.2056L46.4657 31.4947H48.0858C49.5115 31.4947 49.7837 31.4558 50.3669 31.1837C51.2094 30.7948 51.9222 30.082 52.311 29.2395L52.6221 28.5785V23.0961C52.6221 19.83 52.5702 17.2378 52.4795 16.6805C51.8574 12.5071 50.0558 8.86511 47.1267 5.85819C44.1198 2.76056 40.2704 0.790509 35.9415 0.142467C34.7102 -0.0519457 31.2886 -0.0130632 30.0702 0.19431ZM35.9804 2.91609C42.5645 4.0696 47.8007 8.95583 49.4467 15.4881C49.6022 16.1232 49.7837 16.9916 49.8355 17.3933L49.9133 18.1451H48.695H47.4766L47.3989 17.0045C47.2693 15.0474 46.4657 12.7793 45.2863 10.9907C43.5754 8.4374 41.0092 6.55808 37.9115 5.61194C36.758 5.262 36.6932 5.24904 33.1808 5.24904C29.6684 5.24904 29.6036 5.262 28.4501 5.61194C25.3525 6.55808 22.7862 8.4374 21.0754 10.9907C19.896 12.7793 19.0924 15.0474 18.9628 17.0045L18.885 18.1451H17.6797C16.7854 18.1451 16.4614 18.1062 16.4614 17.9766C16.4873 16.7323 17.2649 13.9458 18.0426 12.2868C18.898 10.4723 19.8312 9.17617 21.3735 7.63383C24.0305 4.9639 27.1022 3.42156 30.9775 2.8124C31.8588 2.66983 34.9305 2.73463 35.9804 2.91609ZM36.6025 8.11338C37.756 8.3726 39.8816 9.3965 40.8536 10.1612C42.4867 11.4573 43.9254 13.7254 44.4568 15.864C44.7678 17.1212 44.8197 19.3115 44.5345 19.3115C44.4438 19.3115 43.6791 19.1949 42.8496 19.0523C38.8966 18.3654 35.1898 16.5638 32.2736 13.9198L31.1719 12.9218L29.7462 12.9996C26.9856 13.1422 24.3415 14.3087 22.3845 16.2787C21.529 17.1212 21.542 17.1471 22.0604 15.3585C23.214 11.3406 26.843 8.34668 31.0941 7.89305C32.468 7.75048 35.5008 7.86712 36.6025 8.11338ZM30.4072 15.9547C30.8738 16.4861 32.8827 17.9766 34.1399 18.7153C36.6803 20.2318 39.4668 21.2427 42.4997 21.7611C43.381 21.9167 44.2494 22.0333 44.4179 22.0333C44.716 22.0333 44.7289 22.0722 44.6641 22.5129C44.6252 22.785 44.5604 23.6145 44.5216 24.3663C44.366 26.9714 43.731 31.6114 43.2773 33.5037C42.9403 34.8386 41.9164 36.8994 41.0481 37.9751C39.078 40.3988 36.3303 41.7338 33.3104 41.7597C31.146 41.7727 29.5518 41.332 27.8021 40.2044C26.7911 39.5564 25.4173 38.2344 24.7693 37.2882L24.3545 36.6791H25.5858H26.8041L27.2059 37.3789C27.6336 38.1436 28.1391 38.5973 29.0334 38.9991C29.5518 39.2323 29.8888 39.2712 31.8847 39.2712C33.9974 39.2712 34.1918 39.2453 34.8139 38.9602C36.2655 38.2862 37.0691 37.0031 37.0691 35.383C37.0691 33.7629 36.2655 32.4798 34.8139 31.8058C34.1918 31.5206 33.9974 31.4947 31.8847 31.4947C29.8888 31.4947 29.5518 31.5336 29.0334 31.7669C28.1391 32.1687 27.6336 32.6223 27.2059 33.387L26.8041 34.0869H25.0025H23.214L23.0714 33.5814C22.6826 32.1298 21.9956 26.6344 21.7105 22.6814L21.6327 21.5667L22.6566 20.2188C24.5489 17.7044 26.1172 16.512 28.2687 15.9417C29.5648 15.6047 30.0962 15.6177 30.4072 15.9547ZM18.9758 22.4481C19.0665 24.1459 19.3775 27.8398 19.5072 28.5656L19.572 28.9285L18.4314 28.8766C16.3836 28.773 16.4095 28.8248 16.3577 24.3274L16.3188 20.7372H17.6019H18.885L18.9758 22.4481ZM50.004 24.3274C49.9522 28.8248 49.9781 28.773 47.9303 28.8766L46.7897 28.9285L46.8545 28.5656C46.9712 27.8398 47.2952 24.1589 47.3859 22.4481L47.4637 20.7372H48.7598H50.0429L50.004 24.3274ZM20.0645 32.3631C20.1422 32.8556 20.2459 33.4259 20.2978 33.6462C20.3755 34.0351 20.3496 34.048 20.0385 33.9962C19.3257 33.8536 18.9239 33.1408 18.9239 32.0002C18.9239 31.4947 18.9239 31.4947 19.4294 31.4947H19.9219L20.0645 32.3631ZM33.2975 34.1647C34.6843 34.4498 34.6843 36.3162 33.2975 36.6013C32.7661 36.705 31.0034 36.705 30.472 36.6013C29.487 36.3939 29.0722 35.2534 29.7592 34.5664C29.9406 34.385 30.2128 34.2035 30.3683 34.1776C30.8349 34.0869 32.8568 34.0869 33.2975 34.1647ZM41.9812 46.283C41.9942 46.5811 40.8407 49.4584 39.9982 51.26L39.2595 52.8023L37.1339 50.6768L34.9953 48.5512L35.4231 48.0846C35.6564 47.8383 36.8617 46.5552 38.106 45.2591L40.3611 42.8743L41.1647 44.4815C41.6183 45.3499 41.9812 46.1664 41.9812 46.283ZM28.4761 46.0368L31.0941 48.6678L29.0982 50.7416L27.1152 52.8153L26.3764 51.26C25.5858 49.601 24.3675 46.5941 24.3675 46.309C24.3675 46.1146 25.6895 43.4187 25.7932 43.4187C25.832 43.4187 27.0374 44.5981 28.4761 46.0368ZM33.3364 44.4944H34.9824L34.0622 45.4795C33.5567 46.0238 33.116 46.4775 33.0642 46.5034C33.0253 46.5163 32.4809 46.0238 31.8847 45.4147C30.809 44.326 30.796 44.3 31.2367 44.4037C31.483 44.4556 32.4291 44.4944 33.3364 44.4944ZM22.6178 49.5362C24.0046 53.0227 25.8839 56.4314 28.9167 60.9417C29.6036 61.9657 30.2906 63.0155 30.4461 63.2747L30.7442 63.7672H18.4184C8.0757 63.7672 6.09269 63.7413 6.09269 63.5858C6.09269 63.1062 6.5204 61.0714 6.8185 60.1123C8.10162 56.0685 10.8882 52.595 14.4524 50.599C15.269 50.1454 21.2828 47.9809 21.7883 47.9679C21.9308 47.955 22.1771 48.4345 22.6178 49.5362ZM47.7747 48.9919C49.5244 49.5881 51.3001 50.275 51.8444 50.5731C55.4216 52.5302 58.2471 56.0425 59.5432 60.1123C59.8413 61.0714 60.269 63.1062 60.269 63.5858C60.269 63.7413 58.286 63.7672 47.9432 63.7672H35.6175L35.9156 63.2747C36.0711 63.0155 36.758 61.9657 37.4449 60.9417C40.4389 56.4962 42.396 52.9579 43.7439 49.5362C44.0939 48.6678 44.4438 47.955 44.5216 47.955C44.5993 47.955 46.0639 48.4216 47.7747 48.9919ZM35.449 53.0097L37.7819 55.3427L37.5486 55.7704C37.419 56.0037 36.8487 56.872 36.2914 57.6886C35.7341 58.5051 34.8139 59.879 34.2695 60.7473C33.7252 61.6287 33.2327 62.3415 33.1938 62.3415C33.1549 62.3415 32.6624 61.6287 32.1051 60.7473C31.5478 59.879 30.5368 58.3496 29.8629 57.3646C29.1889 56.3795 28.6445 55.4852 28.6445 55.3945C28.6445 55.239 32.8827 50.6768 33.0383 50.6768C33.0771 50.6768 34.1659 51.7266 35.449 53.0097Z" fill="#00FFD1" stroke="#00FFD1" stroke-width="0.663595"/>
<path d="M46.4776 51.6618C46.2054 51.934 46.1406 52.1284 46.1406 52.6209C46.1406 53.1134 46.2054 53.3078 46.4776 53.58C46.7498 53.8522 46.9442 53.917 47.4367 53.917C48.2921 53.917 48.7328 53.4763 48.7328 52.6209C48.7328 52.1284 48.668 51.934 48.3958 51.6618C47.9033 51.1823 46.9701 51.1823 46.4776 51.6618Z" fill="#00FFD1"/>
<path d="M51.0536 54.1633C50.7555 54.4614 50.6777 54.6558 50.6777 55.0835C50.6777 55.602 50.7555 55.7056 51.7664 56.7555C53.0625 58.0775 53.231 58.2719 53.8531 59.3347C54.3845 60.2419 54.5919 60.3975 55.3436 60.3975C56.0306 60.3975 56.6397 59.8272 56.6397 59.1662C56.6397 58.1164 54.2679 54.915 52.8163 54.0207C52.2071 53.6578 51.5072 53.7097 51.0536 54.1633Z" fill="#00FFD1"/>
</g>
<defs>
<clipPath id="clip0_1719_1088">
<rect width="66.3595" height="66.3595" fill="white"/>
</clipPath>
</defs>
</svg>
