<svg width="68" height="68" viewBox="0 0 68 68" fill="none" xmlns="http://www.w3.org/2000/svg">
<path d="M43.2701 3.64763C36.2016 4.9268 30.6629 10.3336 29.1332 17.4548C28.7508 19.2351 28.7244 22.5847 29.0673 24.2727C29.6871 27.2266 30.7421 29.5476 32.5355 31.8554C36.0302 36.3786 41.5821 38.9106 47.3054 38.6073C55.6134 38.1589 62.339 32.1983 63.7896 23.9693C64.0797 22.3737 64.0797 19.578 63.7896 17.9427C63.5918 16.8218 63.2225 15.5954 62.5632 13.8415L62.339 13.2217L63.183 12.259C63.6577 11.7183 64.5544 10.7029 65.1874 9.99075C66.7172 8.27639 67.0073 7.39284 66.5325 5.81036C66.2688 4.9268 65.227 3.83225 64.4226 3.59488C63.5918 3.35751 62.2862 3.39707 61.6664 3.70038C60.9411 4.04325 60.7301 4.22787 59.4246 5.81036C58.7916 6.57522 58.1981 7.27415 58.1058 7.37965C57.9608 7.52471 57.7498 7.41921 56.8267 6.74666C54.6639 5.17736 52.0792 4.096 49.4813 3.64763C47.9647 3.38388 44.6811 3.38388 43.2701 3.64763ZM49.2044 5.88948C50.6813 6.15323 52.0396 6.61478 53.4507 7.34009C54.6244 7.9599 56.2068 9.05445 56.286 9.31819C56.3255 9.42369 48.2681 19.156 46.8702 20.7121C46.8438 20.7384 45.7097 19.6571 44.3514 18.312C42.9536 16.9273 41.648 15.7272 41.3315 15.569C38.8259 14.2898 35.9511 16.2416 36.1884 19.0768C36.228 19.6439 36.3599 20.0923 36.5841 20.4747C37.0984 21.3319 44.7998 28.941 45.446 29.2311C46.2768 29.5872 47.6614 29.5344 48.4922 29.1124C49.4681 28.6113 51.3143 26.5541 57.763 18.734C59.174 17.0328 60.4004 15.5558 60.4927 15.4503C60.651 15.2789 60.7037 15.3316 60.8752 15.7404C61.5345 17.3361 61.917 20.2901 61.7323 22.3341C61.3763 26.0793 59.9916 29.0069 57.3146 31.7235C55.3497 33.7148 53.6617 34.7962 51.1825 35.6138C43.9294 38.0534 35.8324 34.5456 32.5224 27.5299C28.909 19.8945 32.1399 10.8743 39.7886 7.16865C42.7821 5.73123 45.868 5.30924 49.2044 5.88948ZM63.9214 5.87629C64.2907 6.12685 64.5544 6.78622 64.4489 7.20822C64.3962 7.39284 63.9874 7.94671 63.539 8.42145C62.2335 9.81931 60.6246 11.7183 56.0618 17.2174C49.4945 25.1298 47.8988 26.9497 47.279 27.1739C47.0944 27.253 46.7911 27.2662 46.5933 27.2266C46.1976 27.1343 38.8918 19.9736 38.5754 19.367C38.272 18.7867 38.3512 18.3515 38.8391 17.8636C39.1688 17.5339 39.4062 17.4152 39.7227 17.4152C40.1051 17.4152 40.4611 17.7317 43.1909 20.4351C46.3823 23.6133 46.6856 23.8375 47.3449 23.4682C47.5296 23.3627 50.9319 19.4197 54.9013 14.7118C58.8707 9.99075 62.2467 6.03454 62.4049 5.90267C62.7478 5.62573 63.5522 5.61255 63.9214 5.87629Z" fill="#00FFD1"/>
<path d="M23.8181 35.2181C22.0774 35.561 21.4312 35.8775 15.4442 39.3458L10.7758 42.0624L10.3275 41.2448C9.48347 39.7414 8.78454 39.2535 7.4658 39.2535C6.62181 39.2403 6.09432 39.4909 3.20629 41.1788C1.65018 42.1019 1.09631 43.1042 1.34687 44.5284C1.41281 44.8977 3.11397 48.0231 6.27894 53.6277C8.94279 58.3356 11.3165 62.4896 11.5539 62.8588C12.1605 63.7951 12.899 64.1512 14.099 64.0721C14.9298 64.0325 15.1277 63.9534 16.842 62.9907C17.8443 62.4237 18.8729 61.8039 19.1102 61.6324C19.73 61.1709 20.0993 60.3664 20.1125 59.4169C20.1257 58.7048 20.0597 58.4938 19.4927 57.452C18.9916 56.5421 18.8861 56.252 19.0311 56.1729C19.1234 56.1069 19.5586 55.8564 19.9938 55.6058L20.785 55.1574L28.5656 57.2542C32.8515 58.4015 36.8209 59.4038 37.4011 59.4829C39.221 59.7071 41.2386 59.3246 42.7947 58.4411C43.164 58.2301 48.307 55.0915 54.215 51.4518C62.0219 46.6516 65.1341 44.6603 65.5693 44.2119C66.4001 43.3547 66.743 42.4053 66.743 40.9546C66.743 38.937 65.8726 37.4864 64.211 36.7215C63.4593 36.3786 63.2483 36.3391 61.9296 36.3391C59.358 36.3391 58.9624 36.5105 50.3379 41.5349C44.2585 45.0823 43.4541 45.5307 42.9134 45.6889L42.6365 45.7812L42.887 45.1087C43.1903 44.291 43.2167 42.88 42.9398 42.0624C42.6365 41.2184 41.9112 40.2953 41.1199 39.7678C40.5924 39.4117 40.0386 39.2271 38.6803 38.9106C36.3857 38.3831 34.5658 37.8292 30.7679 36.4841C29.0535 35.8775 27.326 35.3236 26.9435 35.2313C26.1655 35.0731 24.6226 35.0599 23.8181 35.2181ZM26.7193 37.5127C27.0886 37.6051 28.7106 38.1589 30.3459 38.7392C33.59 39.8997 35.845 40.5854 38.0473 41.0865C39.6298 41.4426 40.21 41.7591 40.6188 42.4844C41.1859 43.4734 40.8034 44.8713 39.8408 45.3988C39.1155 45.8076 37.8627 45.6493 34.7636 44.7922C33.313 44.3834 31.6382 43.9218 31.0448 43.7636L29.9502 43.4734L29.5942 43.7504C28.9216 44.2383 28.8557 45.1614 29.4623 45.557C29.8052 45.7812 35.5285 47.3901 37.2692 47.7461C39.2078 48.1549 40.7243 48.3132 41.7397 48.2077C43.5728 48.0363 44.3772 47.6538 51.4193 43.5526C55.0722 41.4162 58.4349 39.504 58.8833 39.3062C62.1538 37.8161 64.5011 38.5018 64.5011 40.9546C64.5011 42.5239 65.1869 41.9964 53.16 49.4209C47.2521 53.0606 42.0035 56.2652 41.5156 56.5289C40.3551 57.1355 38.799 57.4388 37.6648 57.2542C37.2165 57.1883 33.2998 56.186 28.948 55.0124C24.583 53.8387 20.8246 52.8892 20.574 52.8892C20.2839 52.8892 19.7432 53.1134 18.9652 53.5618C17.9893 54.1288 17.7651 54.2079 17.6201 54.0629C17.5278 53.9574 16.209 51.6628 14.6793 48.9594L11.9099 44.0537L13.11 43.3416C18.0025 40.4799 21.207 38.66 22.1038 38.2381C23.9368 37.3545 25.3347 37.1435 26.7193 37.5127ZM7.8878 41.7063C8.03286 41.8778 10.367 45.9131 13.0572 50.6869C17.6464 58.8235 17.9497 59.3906 17.7783 59.6543C17.5409 60.0104 14.2969 61.8566 13.9144 61.8566C13.7562 61.8566 13.5715 61.7775 13.4924 61.6852C13.0968 61.184 3.57553 44.1724 3.57553 43.9482C3.57553 43.8031 3.66784 43.6053 3.79972 43.513C4.11621 43.2492 7.30755 41.4294 7.47899 41.4294C7.55811 41.4162 7.74274 41.5481 7.8878 41.7063Z" fill="#00FFD1"/>
<path d="M6.01505 44.1328C5.65899 44.5152 5.57986 45.1877 5.83042 45.6625C5.90955 45.8076 6.1733 46.0054 6.43704 46.1109C7.67665 46.6384 8.71846 45.2273 7.84809 44.1987C7.55797 43.8558 7.41291 43.7899 6.92498 43.7899C6.45023 43.7899 6.26561 43.8558 6.01505 44.1328Z" fill="#00FFD1"/>
</svg>
