<svg width="35" height="35" viewBox="0 0 35 35" fill="none" xmlns="http://www.w3.org/2000/svg">
<path d="M13.4695 2.4598C13.289 2.51328 13.0751 2.66702 12.7943 2.94109C12.4668 3.27532 12.3131 3.50929 11.9721 4.21786C11.4039 5.38766 11.3037 5.52136 10.9427 5.52136C10.789 5.52136 10.3478 5.44114 9.96006 5.35424C8.48945 4.99996 7.69398 5.0668 7.19931 5.57483C6.76481 6.0227 6.67123 6.37699 6.61775 7.82755C6.5977 8.52275 6.55091 9.15111 6.52417 9.21127C6.45732 9.35165 5.95598 9.5455 5.24741 9.69256C4.27813 9.89978 3.70994 10.1204 3.36903 10.4212C2.98132 10.7621 2.80752 11.1231 2.80752 11.6044C2.80752 12.1057 2.88773 12.3664 3.3824 13.4159C3.61636 13.9239 3.82358 14.4119 3.85032 14.5055C3.91048 14.7595 3.77679 14.9266 2.99469 15.5617C1.73798 16.571 1.40375 17.039 1.40375 17.7542C1.40375 18.4695 1.73798 18.9374 2.99469 19.9468C3.77679 20.5818 3.91048 20.7489 3.85032 21.0029C3.82358 21.0965 3.61636 21.5845 3.3824 22.0925C2.88773 23.142 2.80752 23.4027 2.80752 23.9041C2.8142 24.9001 3.51609 25.4482 5.24741 25.8159C5.94929 25.9629 6.45732 26.1568 6.52417 26.2972C6.55091 26.3573 6.5977 26.979 6.61775 27.6809C6.67123 29.205 6.7715 29.5459 7.25948 29.9804C7.79425 30.4483 8.46271 30.4951 9.94001 30.1609C10.3478 30.0673 10.809 29.9871 10.9561 29.9871C11.297 29.9871 11.4106 30.1274 11.9721 31.2906C12.6005 32.5941 13.1887 33.1288 13.9976 33.1288C14.4655 33.1288 15.0738 32.8013 16.0765 31.9991C16.404 31.7384 16.7784 31.4777 16.892 31.4243C17.1861 31.2839 17.3332 31.3574 18.3158 32.1262C19.4589 33.0219 19.9669 33.2291 20.6688 33.062C20.963 32.9885 21.09 32.9016 21.4309 32.5673C21.7584 32.2331 21.9122 31.9991 22.2531 31.2906C22.8146 30.1341 22.9282 29.9871 23.2691 29.9871C23.4162 29.9871 23.8774 30.0673 24.2852 30.1609C25.7625 30.4951 26.431 30.4483 26.9657 29.9804C27.4537 29.5459 27.554 29.205 27.6075 27.6809C27.6275 26.979 27.6743 26.3573 27.701 26.2972C27.7679 26.1501 28.2826 25.9562 28.9778 25.8159C30.6958 25.4683 31.411 24.9001 31.4177 23.9041C31.4177 23.4027 31.3375 23.142 30.8428 22.0925C30.6089 21.5845 30.4016 21.0965 30.3749 21.0029C30.3147 20.7489 30.4484 20.5818 31.2305 19.9468C32.4872 18.9374 32.8215 18.4695 32.8215 17.7542C32.8215 17.039 32.4872 16.571 31.2305 15.5617C30.4484 14.9266 30.3147 14.7595 30.3749 14.5055C30.4016 14.4119 30.6089 13.9239 30.8428 13.4159C31.3375 12.3664 31.4177 12.1057 31.4177 11.6044C31.411 10.6084 30.6958 10.0402 28.9778 9.69256C28.1155 9.51876 27.7679 9.36502 27.681 9.11768C27.6409 9.00405 27.6075 8.48265 27.6075 7.96124C27.6075 6.53074 27.4938 6.0695 27.0192 5.57483C26.5312 5.0668 25.7892 5.00664 24.2852 5.34756C23.8774 5.44114 23.4162 5.52136 23.2691 5.52136C22.9282 5.52136 22.8146 5.38098 22.2531 4.21786C21.9122 3.50929 21.7584 3.27532 21.4309 2.94109C21.0966 2.60686 20.963 2.51996 20.6688 2.44643C20.0271 2.29937 19.4656 2.48654 18.6166 3.14832C17.6073 3.9371 17.2998 4.13764 17.1126 4.13764C16.9254 4.13764 16.6179 3.9371 15.6086 3.14832C14.7663 2.49322 14.1112 2.27932 13.4695 2.4598ZM14.2249 4.01063C14.3251 4.06411 14.7061 4.35155 15.0738 4.64567C15.9227 5.33419 16.4575 5.60826 17.0057 5.64168C17.7075 5.68847 17.9816 5.54141 19.6193 4.2847C20.1006 3.91705 20.2878 3.8502 20.4282 4.024C20.4817 4.09753 20.749 4.59888 21.0298 5.14033C21.5779 6.22324 21.8988 6.63769 22.3801 6.87165C22.8346 7.08556 23.5165 7.0655 24.713 6.8048C25.2344 6.68448 25.7224 6.5909 25.7959 6.5909C26.0366 6.5909 26.0901 6.83154 26.1368 8.19521C26.1703 9.29148 26.2037 9.5455 26.3173 9.79951C26.6382 10.5148 27.0326 10.7487 28.5701 11.1364C29.1516 11.2835 29.7064 11.4506 29.7933 11.5108C30.0072 11.6445 29.9872 11.7314 29.4725 12.8009C28.9912 13.8103 28.8775 14.1779 28.8775 14.706C28.8842 15.4547 29.1249 15.8023 30.3749 16.8184C30.8228 17.1793 31.2238 17.5403 31.2706 17.6138C31.391 17.8144 31.264 17.9748 30.4083 18.65C29.185 19.6326 28.8842 20.0604 28.8775 20.8024C28.8775 21.3305 28.9912 21.6981 29.4725 22.7075C29.9872 23.7771 30.0072 23.864 29.7933 24.0043C29.6998 24.0578 29.1984 24.2116 28.6703 24.3453C27.0794 24.7263 26.6917 24.9402 26.3641 25.622C26.1836 25.9763 26.177 26.0565 26.1368 27.3065C26.0901 28.6769 26.0366 28.9175 25.7959 28.9175C25.7224 28.9175 25.2344 28.8239 24.713 28.7036C22.5004 28.209 21.9857 28.4496 21.0097 30.3948C20.4215 31.5646 20.3747 31.6181 20.1675 31.5646C20.0806 31.5446 19.6327 31.2371 19.1782 30.8828C18.1086 30.0472 17.7744 29.8868 17.1126 29.8868C16.4508 29.8868 16.1166 30.0472 15.0471 30.8828C14.5925 31.2371 14.1446 31.5446 14.0577 31.5646C13.8438 31.6181 13.8037 31.558 13.1954 30.3614C12.4066 28.8039 12.0056 28.4697 10.9293 28.4964C10.6085 28.5031 10.0269 28.59 9.48546 28.7103C8.98411 28.8239 8.5095 28.9175 8.43597 28.9175C8.16858 28.9175 8.13516 28.7705 8.08837 27.36C8.05495 26.2103 8.02821 25.9629 7.90788 25.7089C7.60708 25.0338 7.09905 24.6995 5.94929 24.4388C5.0335 24.2316 4.39846 24.0177 4.32493 23.8974C4.27813 23.8239 4.3383 23.6233 4.54552 23.1621C5.30088 21.4842 5.30088 21.4842 5.33431 20.9561C5.3811 20.0938 5.14045 19.7195 3.83027 18.6767C3.41582 18.3425 3.0348 18.0015 2.97463 17.9146C2.88105 17.7676 2.88105 17.7408 2.97463 17.5938C3.0348 17.5069 3.41582 17.166 3.83027 16.8317C5.06024 15.8491 5.34099 15.4547 5.34767 14.706C5.34767 14.1779 5.23404 13.8103 4.75274 12.8009C4.23803 11.7314 4.21797 11.6445 4.43188 11.5041C4.51878 11.4506 4.90649 11.3236 5.28751 11.2367C7.03888 10.8223 7.50681 10.5816 7.84772 9.90647C8.04158 9.53213 8.04826 9.49202 8.08837 8.20189C8.13516 6.83154 8.18864 6.5909 8.42929 6.5909C8.50282 6.5909 8.99079 6.68448 9.51219 6.8048C11.6914 7.2861 12.2395 7.05214 13.1419 5.2406C13.8238 3.86357 13.8639 3.82346 14.2249 4.01063Z" fill="#F5F5F5"/>
<path d="M12.7141 11.7981C11.6178 12.2059 10.9761 13.1819 11.0429 14.3383C11.0964 15.2541 11.5643 15.9827 12.3798 16.4239C12.7876 16.6445 12.8277 16.6512 13.5363 16.6512C14.198 16.6512 14.305 16.6311 14.6392 16.4707C15.1138 16.2367 15.5951 15.7554 15.8291 15.2808C15.9895 14.9466 16.0096 14.8397 16.0096 14.1779C16.0096 13.4693 16.0029 13.4292 15.7823 13.0214C15.5082 12.5134 15.0871 12.119 14.5858 11.885C14.0644 11.6511 13.2288 11.611 12.7141 11.7981ZM14.0978 13.3222C14.3718 13.5295 14.5189 13.7768 14.5523 14.0977C14.6459 14.8998 13.69 15.5081 13.0349 15.0602C12.5269 14.7193 12.3865 14.2447 12.6472 13.7434C12.928 13.1952 13.6432 12.988 14.0978 13.3222Z" fill="#F5F5F5"/>
<path d="M21.7583 12.1056C21.6447 12.1658 19.2783 14.4853 16.4975 17.2728C11.952 21.8184 11.4373 22.3598 11.3905 22.5938C11.2969 23.1352 11.7314 23.5697 12.2729 23.4761C12.5068 23.4294 13.0483 22.9146 17.6607 18.3022C22.2129 13.7433 22.7878 13.1484 22.8279 12.9211C22.888 12.5936 22.761 12.2928 22.5003 12.1323C22.253 11.9786 22.0257 11.9719 21.7583 12.1056Z" fill="#F5F5F5"/>
<path d="M19.8065 18.944C19.1113 19.1913 18.4762 19.8598 18.2757 20.5483C18.2022 20.8023 18.1754 21.0898 18.1955 21.4908C18.2155 21.9855 18.2556 22.1259 18.4428 22.4868C18.7169 22.9882 19.1313 23.3893 19.6394 23.6232C19.9736 23.7837 20.1073 23.8037 20.6888 23.8037C21.2905 23.8037 21.3974 23.7837 21.7584 23.6099C22.2664 23.3558 22.7143 22.908 22.9683 22.3999C23.1421 22.039 23.1621 21.932 23.1621 21.3304C23.1621 20.7488 23.1421 20.6151 22.9817 20.2809C22.7477 19.7729 22.3466 19.3584 21.8453 19.0844C21.4643 18.8838 21.364 18.8571 20.7891 18.8437C20.3011 18.8237 20.0739 18.8504 19.8065 18.944ZM21.1902 20.4413C21.6982 20.7889 21.8386 21.2636 21.5779 21.7649C21.2971 22.313 20.5819 22.5203 20.1273 22.1793C19.8399 21.9721 19.6527 21.6379 19.6527 21.3438C19.6527 20.555 20.5685 20.0202 21.1902 20.4413Z" fill="#F5F5F5"/>
</svg>
