<svg width="35" height="19" viewBox="0 0 35 19" fill="none" xmlns="http://www.w3.org/2000/svg">
<path d="M6.6801 9.74163C6.53741 9.88433 6.53741 10.1157 6.6801 10.2584L9.00539 12.5837C9.14808 12.7264 9.37943 12.7264 9.52212 12.5837C9.66481 12.441 9.66481 12.2096 9.52212 12.0669L7.45519 10L9.52212 7.93307C9.66481 7.79038 9.66481 7.55903 9.52212 7.41634C9.37943 7.27365 9.14808 7.27365 9.00539 7.41634L6.6801 9.74163ZM35 9.63462L6.93846 9.63462V10.3654L35 10.3654V9.63462Z" fill="#F5F5F5"/>
<path d="M18.7675 9.5C18.7675 14.5425 14.6504 18.6346 9.56643 18.6346C4.48243 18.6346 0.365385 14.5425 0.365385 9.5C0.365385 4.45749 4.48243 0.365385 9.56643 0.365385C14.6504 0.365385 18.7675 4.45749 18.7675 9.5Z" stroke="#F5F5F5" stroke-width="0.730769"/>
</svg>
