<svg width="24" height="24" viewBox="0 0 24 24" fill="none" xmlns="http://www.w3.org/2000/svg">
<path d="M12.1846 13.9322C14.2848 13.9322 15.9927 12.2242 15.9927 10.1241C15.9927 8.02387 14.2848 6.31592 12.1846 6.31592C10.0844 6.31592 8.37646 8.02387 8.37646 10.1241C8.37646 12.2242 10.0844 13.9322 12.1846 13.9322ZM12.1846 8.21999C13.2347 8.21999 14.0887 9.07396 14.0887 10.1241C14.0887 11.1742 13.2347 12.0281 12.1846 12.0281C11.1345 12.0281 10.2805 11.1742 10.2805 10.1241C10.2805 9.07396 11.1345 8.21999 12.1846 8.21999Z" fill="#F5F5F5"/>
<path d="M11.633 21.3719C11.7942 21.487 11.9872 21.5488 12.1852 21.5488C12.3832 21.5488 12.5763 21.487 12.7374 21.3719C13.0268 21.1672 19.8291 16.2557 19.8015 10.1246C19.8015 5.92515 16.3846 2.5083 12.1852 2.5083C7.98578 2.5083 4.56893 5.92515 4.56893 10.1198C4.54132 16.2557 11.3436 21.1672 11.633 21.3719ZM12.1852 4.41237C15.3355 4.41237 17.8974 6.9743 17.8974 10.1293C17.9174 14.3545 13.7199 18.1483 12.1852 19.3926C10.6515 18.1474 6.45301 14.3526 6.473 10.1246C6.473 6.9743 9.03493 4.41237 12.1852 4.41237Z" fill="#F5F5F5"/>
</svg>
