<svg width="21" height="21" viewBox="0 0 21 21" fill="none" xmlns="http://www.w3.org/2000/svg">
<path d="M15.1432 5.32405C14.9444 5.32405 14.75 5.38301 14.5847 5.49348C14.4193 5.60395 14.2905 5.76096 14.2144 5.94467C14.1383 6.12837 14.1184 6.33051 14.1572 6.52553C14.196 6.72055 14.2917 6.89969 14.4323 7.04029C14.5729 7.18089 14.7521 7.27664 14.9471 7.31543C15.1421 7.35422 15.3442 7.33431 15.5279 7.25822C15.7116 7.18213 15.8687 7.05327 15.9791 6.88794C16.0896 6.72261 16.1486 6.52824 16.1486 6.3294C16.1486 6.06276 16.0426 5.80705 15.8541 5.61851C15.6656 5.42997 15.4098 5.32405 15.1432 5.32405ZM18.997 7.3515C18.9808 6.65639 18.8506 5.96865 18.6117 5.31567C18.3986 4.75698 18.0671 4.25107 17.6398 3.83278C17.225 3.40335 16.7179 3.07389 16.1569 2.86932C15.5057 2.62315 14.8172 2.48998 14.1211 2.47556C13.2331 2.42529 12.9482 2.42529 10.6694 2.42529C8.39062 2.42529 8.10577 2.42529 7.21771 2.47556C6.52164 2.48998 5.83313 2.62315 5.18188 2.86932C4.62197 3.07596 4.11532 3.40514 3.69899 3.83278C3.26956 4.24764 2.9401 4.75472 2.73553 5.31567C2.48936 5.96692 2.35619 6.65543 2.34177 7.3515C2.2915 8.23956 2.2915 8.52441 2.2915 10.8032C2.2915 13.082 2.2915 13.3668 2.34177 14.2549C2.35619 14.951 2.48936 15.6395 2.73553 16.2907C2.9401 16.8517 3.26956 17.3588 3.69899 17.7736C4.11532 18.2013 4.62197 18.5304 5.18188 18.7371C5.83313 18.9833 6.52164 19.1164 7.21771 19.1308C8.10577 19.1811 8.39062 19.1811 10.6694 19.1811C12.9482 19.1811 13.2331 19.1811 14.1211 19.1308C14.8172 19.1164 15.5057 18.9833 16.1569 18.7371C16.7179 18.5325 17.225 18.203 17.6398 17.7736C18.069 17.3569 18.4008 16.8505 18.6117 16.2907C18.8506 15.6378 18.9808 14.95 18.997 14.2549C18.997 13.3668 19.0473 13.082 19.0473 10.8032C19.0473 8.52441 19.0473 8.23956 18.997 7.3515ZM17.489 14.1544C17.4829 14.6862 17.3866 15.2131 17.2042 15.7127C17.0704 16.0773 16.8556 16.4067 16.5758 16.6761C16.3041 16.953 15.9753 17.1674 15.6124 17.3045C15.1128 17.4869 14.5859 17.5832 14.0541 17.5893C13.2163 17.6312 12.9063 17.6396 10.7029 17.6396C8.49953 17.6396 8.18955 17.6396 7.35176 17.5893C6.79956 17.5996 6.24973 17.5146 5.72645 17.338C5.37942 17.1939 5.06573 16.9801 4.80488 16.7096C4.5268 16.4405 4.31464 16.1108 4.18491 15.7462C3.98037 15.2394 3.86692 14.7006 3.84979 14.1544C3.84979 13.3166 3.79953 13.0066 3.79953 10.8032C3.79953 8.59981 3.79953 8.28983 3.84979 7.45204C3.85355 6.90836 3.9528 6.36957 4.14302 5.86023C4.29051 5.50661 4.5169 5.19139 4.80488 4.93866C5.05941 4.65061 5.37398 4.42183 5.72645 4.26843C6.23712 4.08415 6.77536 3.98784 7.31825 3.98358C8.15604 3.98358 8.46602 3.93332 10.6694 3.93332C12.8728 3.93332 13.1828 3.93332 14.0206 3.98358C14.5524 3.98968 15.0793 4.086 15.5789 4.26843C15.9596 4.40973 16.3013 4.63945 16.5758 4.93866C16.8504 5.19602 17.0649 5.51065 17.2042 5.86023C17.3904 6.37039 17.4868 6.90896 17.489 7.45204C17.5309 8.28983 17.5393 8.59981 17.5393 10.8032C17.5393 13.0066 17.5309 13.3166 17.489 14.1544ZM10.6694 6.50533C9.81973 6.50699 8.98961 6.76046 8.28393 7.23372C7.57825 7.70698 7.02869 8.3788 6.70468 9.16427C6.38067 9.94975 6.29675 10.8136 6.46353 11.6468C6.63031 12.4799 7.0403 13.245 7.6417 13.8452C8.2431 14.4454 9.00892 14.8539 9.84239 15.0191C10.6759 15.1842 11.5396 15.0986 12.3244 14.7731C13.1093 14.4476 13.78 13.8967 14.2519 13.1901C14.7238 12.4835 14.9757 11.6529 14.9757 10.8032C14.9768 10.2378 14.8661 9.67772 14.65 9.15523C14.4338 8.63274 14.1165 8.15813 13.7163 7.75871C13.3161 7.35929 12.8409 7.04293 12.318 6.82782C11.7951 6.61272 11.2348 6.50312 10.6694 6.50533ZM10.6694 13.593C10.1176 13.593 9.57824 13.4294 9.11946 13.1229C8.66067 12.8163 8.30309 12.3806 8.09193 11.8708C7.88077 11.361 7.82553 10.8001 7.93317 10.2589C8.04082 9.71775 8.30653 9.22065 8.69669 8.83048C9.08686 8.44032 9.58396 8.17461 10.1251 8.06696C10.6663 7.95932 11.2273 8.01456 11.737 8.22572C12.2468 8.43688 12.6825 8.79446 12.9891 9.25325C13.2956 9.71203 13.4593 10.2514 13.4593 10.8032C13.4593 11.1696 13.3871 11.5323 13.2469 11.8708C13.1067 12.2093 12.9012 12.5169 12.6421 12.7759C12.3831 13.035 12.0755 13.2405 11.737 13.3807C11.3986 13.5209 11.0358 13.593 10.6694 13.593Z" fill="#F5F5F5"/>
</svg>
