<svg width="24" height="24" viewBox="0 0 24 24" fill="none" xmlns="http://www.w3.org/2000/svg">
<g clip-path="url(#clip0_1195_3366)">
<path fill-rule="evenodd" clip-rule="evenodd" d="M8.54035 15.6226C12.2009 19.2832 15.593 19.684 16.5888 19.7211C17.7922 19.7649 19.0203 18.7824 19.5516 17.7761C18.7043 16.7822 17.6009 16.011 16.3927 15.1751C15.6797 15.8872 14.8009 17.2106 13.6309 16.7365C12.9654 16.4689 11.3222 15.7121 9.88652 14.2754C8.4499 12.8398 7.69399 11.1966 7.42456 10.532C6.95045 9.36009 8.27759 8.47946 8.99066 7.76639C8.15477 6.53826 7.39695 5.40629 6.40493 4.60182C5.38435 5.13496 4.39614 6.35357 4.44088 7.57312C4.47801 8.56895 4.87882 11.9611 8.54035 15.6226ZM16.5184 21.6242C15.1475 21.5737 11.2622 21.0368 7.19322 16.9688C3.12517 12.8998 2.58918 9.01545 2.53777 7.64357C2.4616 5.5529 4.06293 3.52221 5.91273 2.72917C6.13548 2.63298 6.37942 2.59636 6.6206 2.6229C6.86178 2.64944 7.09191 2.73822 7.28842 2.88054C8.81929 3.99728 9.8751 5.68905 10.7824 7.01428C10.9711 7.28985 11.0576 7.62273 11.0268 7.95531C10.996 8.2879 10.85 8.59926 10.6139 8.83552L9.32292 10.1274C9.62281 10.7891 10.2331 11.9296 11.2327 12.9293C12.2323 13.9289 13.3729 14.5392 14.0355 14.8391L15.3255 13.5481C15.5627 13.3115 15.8753 13.1656 16.209 13.1359C16.5427 13.1061 16.8762 13.1944 17.1515 13.3853C18.5034 14.3221 20.0914 15.3627 21.2491 16.845C21.4029 17.0429 21.5008 17.2786 21.5325 17.5273C21.5641 17.776 21.5284 18.0286 21.429 18.2588C20.6321 20.1181 18.6157 21.7013 16.5184 21.6242Z" fill="#F5F5F5"/>
</g>
<defs>
<clipPath id="clip0_1195_3366">
<rect width="22.8488" height="22.8488" fill="white" transform="translate(0.760254 0.553223)"/>
</clipPath>
</defs>
</svg>
