<svg width="35" height="34" viewBox="0 0 35 34" fill="none" xmlns="http://www.w3.org/2000/svg">
<g clip-path="url(#clip0_1065_2490)">
<path d="M13.9058 0.266895C12.9499 0.535484 12.0809 1.21023 11.5461 2.10771C11.2386 2.61868 10.8175 3.03139 10.3964 3.24757C10.2426 3.31963 9.83486 3.4572 9.48058 3.54236C8.58484 3.77164 8.10354 4.03368 7.54204 4.58396C6.70646 5.40283 6.40565 6.24134 6.46581 7.53188C6.52597 8.75035 6.3856 9.18926 5.6436 10.0605C5.00857 10.8008 4.72781 11.4362 4.66096 12.2944C4.58075 13.3098 4.95509 14.371 5.67034 15.1572C6.36554 15.9236 6.52597 16.4215 6.46581 17.6465C6.43907 18.3147 6.45244 18.5636 6.54603 18.9043C6.92037 20.3193 8.06344 21.3609 9.55411 21.6557C9.7747 21.7015 9.98861 21.7539 10.0354 21.7801C10.0822 21.8064 9.2533 23.2214 7.68241 25.7828C5.18905 29.8443 5.1222 29.9623 5.30937 30.2964C5.3428 30.3619 5.46312 30.4536 5.57007 30.4994C5.75056 30.5715 5.96447 30.5191 7.78937 30.0147C8.89901 29.7002 9.80812 29.4513 9.82149 29.4644C9.82818 29.4775 10.0354 30.3815 10.276 31.4755C10.5568 32.7399 10.764 33.5129 10.8309 33.5849C10.998 33.7684 11.4592 33.7552 11.6397 33.5587C11.7132 33.4801 13.0167 31.3904 14.5275 28.9076L17.2815 24.4071H17.8096H18.3377L21.0918 28.9076C22.6025 31.3904 23.906 33.4801 23.9795 33.5653C24.16 33.7552 24.6212 33.7684 24.7884 33.5849C24.8619 33.5063 25.0557 32.7595 25.3432 31.4755C25.5838 30.3815 25.7911 29.4775 25.7977 29.4644C25.8044 29.4513 26.7135 29.7002 27.8098 30.0081C29.5745 30.4994 29.8352 30.5584 30.0224 30.4929C30.1427 30.4536 30.2764 30.3684 30.3099 30.3029C30.497 29.9623 30.4302 29.8509 27.9435 25.7828L25.5103 21.8195L25.8245 21.7277C26.8539 21.4395 27.0812 21.3478 27.4221 21.1316C28.2376 20.6141 28.8326 19.8083 29.0732 18.9043C29.1668 18.5571 29.1802 18.3147 29.1467 17.6269C29.0866 16.4215 29.247 15.9302 29.9355 15.1768C30.8446 14.1745 31.1722 12.9167 30.8446 11.6721C30.6842 11.0432 30.477 10.6698 29.9623 10.0474C29.2269 9.16961 29.0933 8.73725 29.1534 7.53188C29.2136 6.24134 28.9061 5.39627 28.0772 4.59051C27.509 4.03368 27.0143 3.77164 26.1453 3.54891C25.7911 3.4572 25.3766 3.31963 25.2229 3.24757C24.8017 3.03139 24.3806 2.61868 24.0731 2.10771C23.6787 1.44606 23.0169 0.823727 22.4086 0.542038C21.7335 0.227592 21.299 0.142429 20.4768 0.181736C19.8484 0.207939 19.7147 0.240692 19.0797 0.496181C18.438 0.758217 18.331 0.78442 17.8096 0.78442C17.2882 0.78442 17.1813 0.758217 16.5395 0.496181C15.8644 0.221039 15.8109 0.207939 15.0355 0.194836C14.494 0.181736 14.1264 0.201389 13.9058 0.266895ZM16.1919 1.57053C17.3617 2.0291 18.2575 2.0291 19.4206 1.57053C20.4032 1.18403 21.1319 1.17093 21.8739 1.53778C22.3819 1.78671 22.7429 2.14701 23.0972 2.73005C23.6921 3.73889 24.4876 4.29572 25.7509 4.61016C26.8673 4.8853 27.402 5.29146 27.8232 6.17583C27.997 6.54269 28.0037 6.59509 28.0103 7.7022C28.017 8.69139 28.0371 8.90757 28.1574 9.27443C28.3446 9.8247 28.6053 10.2571 29.0598 10.7746C29.6548 11.4362 29.8954 12.0913 29.8152 12.8185C29.755 13.4212 29.5545 13.847 29.0398 14.4497C28.1775 15.4651 27.9234 16.2184 28.0037 17.5351C28.0438 18.1575 28.0304 18.3737 27.9368 18.6816C27.6427 19.6839 26.874 20.352 25.7509 20.5748C24.6146 20.8041 23.7456 21.4264 23.0704 22.5008C22.4554 23.4834 21.7335 23.9092 20.684 23.9026C20.1626 23.9026 20.0556 23.883 19.4139 23.6144L18.712 23.3262H17.8096H16.9072L16.2053 23.6144C15.5636 23.883 15.4566 23.9026 14.9352 23.9026C13.8857 23.9092 13.1638 23.4834 12.5488 22.5073C11.8737 21.433 10.998 20.8041 9.86828 20.5748C8.74527 20.352 7.97654 19.6839 7.68241 18.6816C7.58883 18.3671 7.57546 18.1509 7.61557 17.5351C7.6891 16.225 7.43508 15.452 6.57945 14.4497C6.06474 13.8404 5.85083 13.395 5.79735 12.8054C5.72382 12.0848 5.97115 11.4297 6.5594 10.7746C7.01395 10.2571 7.27465 9.8247 7.46182 9.27443C7.58214 8.90757 7.6022 8.69139 7.60888 7.7022L7.61557 6.55579L7.82948 6.11033C8.07681 5.59935 8.5581 5.10148 9.01265 4.8853C9.17977 4.80669 9.60758 4.67567 9.96187 4.59051C11.1049 4.30882 11.9472 3.69958 12.5288 2.7235C12.8764 2.14046 13.2373 1.78671 13.752 1.53778C14.4874 1.17093 15.216 1.18403 16.1919 1.57053ZM11.5996 23.1624C11.8737 23.6341 12.4686 24.2302 12.9232 24.5053C13.5515 24.8722 14.0729 25.0163 14.8483 25.0229C15.2294 25.0294 15.5368 25.036 15.5368 25.036C15.5368 25.0491 11.5194 31.6393 11.4993 31.659C11.4926 31.6655 11.3255 30.9646 11.1384 30.0933C10.7507 28.3442 10.6905 28.2066 10.276 28.2066C10.1022 28.2066 7.70247 28.8355 7.12759 29.0255C7.0808 29.0451 7.05406 29.032 7.06743 29.0058C7.0808 28.9796 7.98991 27.486 9.08618 25.6911L11.0782 22.4156L11.2386 22.6121C11.3255 22.7169 11.486 22.9659 11.5996 23.1624ZM26.5397 25.6976C27.6293 27.4926 28.5384 28.9796 28.5518 29.0058C28.5652 29.032 28.5384 29.0451 28.4916 29.0255C27.9168 28.8355 25.517 28.2066 25.3432 28.2066C24.9287 28.2066 24.8686 28.3442 24.4809 30.0933C24.2937 30.9646 24.1266 31.6655 24.1199 31.659C24.0998 31.6393 20.0824 25.0491 20.0824 25.036C20.0824 25.036 20.3899 25.0294 20.7709 25.0229C21.5396 25.0163 22.168 24.846 22.7495 24.4791C23.164 24.2171 23.7456 23.6144 23.9929 23.1951C24.1867 22.8611 24.4876 22.4418 24.5343 22.4418C24.5477 22.4418 25.4501 23.9092 26.5397 25.6976Z" fill="#F5F5F5"/>
<path d="M17.0074 4.89183C13.9459 5.19317 11.2987 7.26326 10.3228 10.1129C9.64764 12.0978 9.81476 14.2728 10.7974 16.1529C11.8803 18.2164 13.8055 19.6576 16.2186 20.1948C16.9005 20.3455 18.7187 20.3455 19.4005 20.1948C20.5837 19.9262 21.5931 19.4873 22.4888 18.8388C24.16 17.6203 25.2562 15.8581 25.6038 13.8535C25.7643 12.9167 25.7041 11.5803 25.4701 10.6959C24.8084 8.2066 22.9901 6.22167 20.5235 5.31109C19.5743 4.95734 18.0903 4.78046 17.0074 4.89183ZM19.1465 6.0972C20.2227 6.31993 21.3992 6.88986 22.2615 7.61701C23.1639 8.37037 24.0463 9.77227 24.3739 10.9776C24.5677 11.7048 24.5878 13.3687 24.4073 14.0828C23.7321 16.7163 21.5931 18.6684 18.8858 19.1335C15.9312 19.6445 12.8295 17.9806 11.6196 15.2357C11.1851 14.2597 11.0982 13.8207 11.0982 12.6154C11.0982 11.3314 11.2052 10.8139 11.7199 9.76572C13.0635 7.00123 16.1384 5.48796 19.1465 6.0972Z" fill="#F5F5F5"/>
<path d="M20.2829 10.1064C20.2294 10.1261 19.347 10.9515 18.331 11.9472L16.4793 13.7553L15.9178 13.2181C15.3429 12.6679 15.2026 12.6089 14.9151 12.7596C14.6945 12.8709 14.6076 13.0151 14.601 13.2705C14.601 13.4736 14.6879 13.5784 15.4232 14.299C16.1585 15.0196 16.2721 15.1048 16.4726 15.1048C16.6866 15.1048 16.867 14.9476 18.8591 12.9888C20.8845 11.0105 21.0182 10.8598 21.0182 10.6436C21.0182 10.2899 20.6037 9.98852 20.2829 10.1064Z" fill="#F5F5F5"/>
</g>
<defs>
<clipPath id="clip0_1065_2490">
<rect width="34.2253" height="33.5408" fill="white" transform="translate(0.697021 0.168457)"/>
</clipPath>
</defs>
</svg>
