<svg width="68" height="68" viewBox="0 0 68 68" fill="none" xmlns="http://www.w3.org/2000/svg">
<g clip-path="url(#clip0_1114_3881)">
<path d="M26.3383 0.205788C24.4525 0.746468 22.7382 2.10477 21.6832 3.91143C21.0766 4.94005 20.2458 5.77085 19.415 6.20603C19.1116 6.35109 18.3072 6.62803 17.6083 6.79947C15.8412 7.26102 14.8917 7.78852 13.784 8.89625C12.1355 10.5447 11.5421 12.2327 11.6608 14.8306C11.7795 17.2834 11.5025 18.167 10.0387 19.9209C8.78595 21.4111 8.23208 22.6902 8.1002 24.4178C7.94195 26.4618 8.68045 28.5982 10.0915 30.1806C11.463 31.7236 11.7795 32.7258 11.6608 35.1918C11.608 36.5369 11.6344 37.0381 11.819 37.7238C12.5575 40.5723 14.8126 42.6691 17.7533 43.2625C18.1885 43.3548 18.6105 43.4603 18.7028 43.5131C18.7951 43.5658 17.1599 46.4143 14.0609 51.5705C9.142 59.7467 9.01013 59.9841 9.37938 60.6566C9.44531 60.7885 9.68269 60.9731 9.89368 61.0654C10.2497 61.2105 10.6717 61.105 14.2719 60.0896C16.461 59.4566 18.2545 58.9554 18.2808 58.9818C18.294 59.0082 18.7028 60.8281 19.1776 63.0303C19.7314 65.5755 20.1403 67.1316 20.2721 67.2767C20.6018 67.6459 21.5117 67.6195 21.8678 67.2239C22.0129 67.0657 24.5844 62.8589 27.5647 57.8609L32.9979 48.8012H34.0397H35.0815L40.5147 57.8609C43.4951 62.8589 46.0666 67.0657 46.2117 67.2371C46.5677 67.6195 47.4776 67.6459 47.8073 67.2767C47.9524 67.1184 48.3348 65.6151 48.9019 63.0303C49.3766 60.8281 49.7854 59.0082 49.7986 58.9818C49.8118 58.9554 51.6053 59.4566 53.768 60.0764C57.2495 61.0654 57.7638 61.1841 58.133 61.0522C58.3704 60.9731 58.6341 60.8017 58.7001 60.6698C59.0693 59.9841 58.9375 59.7599 54.0318 51.5705L49.2316 43.5922L49.8514 43.4076C51.8822 42.8273 52.3306 42.6427 53.0031 42.2075C54.612 41.1657 55.7857 39.5437 56.2604 37.7238C56.445 37.0249 56.4714 36.5369 56.4055 35.1523C56.2868 32.7258 56.6033 31.7367 57.9616 30.2202C59.7551 28.2025 60.4012 25.6706 59.7551 23.165C59.4386 21.899 59.0298 21.1473 58.0143 19.8945C56.5637 18.1274 56.3 17.257 56.4187 14.8306C56.5374 12.2327 55.9307 10.5315 54.2955 8.90944C53.1746 7.78852 52.1987 7.26102 50.4844 6.81265C49.7854 6.62803 48.9678 6.35109 48.6645 6.20603C47.8337 5.77085 47.0029 4.94005 46.3963 3.91143C45.6182 2.57951 44.3127 1.32671 43.1126 0.759659C41.7807 0.126663 40.9235 -0.0447693 39.3015 0.0343552C38.0619 0.0871048 37.7981 0.153038 36.5453 0.667343C35.2793 1.19484 35.0683 1.24759 34.0397 1.24759C33.0111 1.24759 32.8001 1.19484 31.5341 0.667343C30.2022 0.113472 30.0967 0.0871048 28.567 0.06073C27.4988 0.0343552 26.7735 0.0739136 26.3383 0.205788ZM30.8484 2.83007C33.1562 3.75319 34.9233 3.75319 37.2179 2.83007C39.1564 2.05202 40.5938 2.02564 42.0576 2.76414C43.0599 3.26525 43.772 3.99056 44.4709 5.16423C45.6446 7.19508 47.2139 8.31601 49.7063 8.949C51.9086 9.50287 52.9636 10.3205 53.7944 12.1008C54.1373 12.8393 54.1504 12.9448 54.1636 15.1734C54.1768 17.1647 54.2164 17.5999 54.4538 18.3384C54.823 19.4461 55.3373 20.3165 56.234 21.3583C57.4077 22.6902 57.8825 24.009 57.7242 25.4728C57.6055 26.686 57.2099 27.5432 56.1945 28.7564C54.4933 30.8004 53.9922 32.317 54.1504 34.9677C54.2296 36.2204 54.2032 36.6556 54.0186 37.2754C53.4383 39.2931 51.9218 40.6382 49.7063 41.0866C47.4645 41.5481 45.7501 42.8009 44.4182 44.9637C43.2049 46.9418 41.7807 47.7989 39.7103 47.7858C38.6817 47.7858 38.4707 47.7462 37.2047 47.2055L35.82 46.6253H34.0397H32.2594L30.8748 47.2055C29.6088 47.7462 29.3978 47.7858 28.3692 47.7858C26.2988 47.7989 24.8745 46.9418 23.6613 44.9769C22.3294 42.8141 20.6018 41.5481 18.3732 41.0866C16.1577 40.6382 14.6411 39.2931 14.0609 37.2754C13.8763 36.6424 13.8499 36.2073 13.929 34.9677C14.0741 32.3302 13.573 30.7741 11.885 28.7564C10.8695 27.53 10.4476 26.6332 10.3421 25.4464C10.197 23.9958 10.6849 22.677 11.8454 21.3583C12.7422 20.3165 13.2565 19.4461 13.6257 18.3384C13.8631 17.5999 13.9026 17.1647 13.9158 15.1734L13.929 12.8656L14.351 11.9689C14.8389 10.9403 15.7884 9.93805 16.6852 9.50287C17.0149 9.34462 17.8588 9.08088 18.5578 8.90944C20.8128 8.34238 22.4744 7.11596 23.6217 5.15104C24.3075 3.97737 25.0196 3.26525 26.035 2.76414C27.4856 2.02564 28.923 2.05202 30.8484 2.83007ZM21.7887 46.2956C22.3294 47.2451 23.503 48.4451 24.3998 48.999C25.6394 49.7375 26.668 50.0276 28.1977 50.0408C28.9494 50.054 29.556 50.0672 29.556 50.0672C29.556 50.0935 21.6304 63.36 21.5909 63.3996C21.5777 63.4128 21.248 62.0017 20.8787 60.2478C20.1139 56.7268 19.9952 56.4498 19.1776 56.4498C18.8347 56.4498 14.1004 57.7158 12.9663 58.0983C12.874 58.1378 12.8213 58.1115 12.8477 58.0587C12.874 58.006 14.6675 54.9992 16.8302 51.3859L20.7601 44.7922L21.0766 45.1878C21.248 45.3988 21.5645 45.9 21.7887 46.2956ZM51.2624 51.3991C53.412 55.0124 55.2054 58.006 55.2318 58.0587C55.2582 58.1115 55.2054 58.1378 55.1131 58.0983C53.979 57.7158 49.2447 56.4498 48.9019 56.4498C48.0843 56.4498 47.9656 56.7268 47.2007 60.2478C46.8315 62.0017 46.5018 63.4128 46.4886 63.3996C46.449 63.36 38.5234 50.0935 38.5234 50.0672C38.5234 50.0672 39.13 50.054 39.8817 50.0408C41.3983 50.0276 42.6379 49.6847 43.7852 48.9462C44.6028 48.4188 45.7501 47.2055 46.238 46.3615C46.6205 45.689 47.2139 44.845 47.3062 44.845C47.3326 44.845 49.1129 47.7989 51.2624 51.3991Z" fill="#00FFD1"/>
<path d="M32.4573 9.51556C26.4175 10.1222 21.1953 14.2894 19.27 20.0259C17.9381 24.0217 18.2677 28.3999 20.2063 32.1846C22.3426 36.3386 26.1406 39.2399 30.9012 40.3212C32.2463 40.6245 35.8333 40.6245 37.1784 40.3212C39.5126 39.7805 41.5039 38.897 43.271 37.5914C46.5678 35.1386 48.7305 31.5912 49.4163 27.5559C49.7328 25.6701 49.6141 22.9798 49.1525 21.1996C47.847 16.1884 44.26 12.1926 39.3939 10.3595C37.5213 9.64743 34.5937 9.29137 32.4573 9.51556ZM36.6773 11.942C38.8005 12.3904 41.1214 13.5377 42.8226 15.0015C44.6029 16.518 46.3436 19.3401 46.9898 21.7666C47.3722 23.2304 47.4118 26.58 47.0557 28.0174C45.7238 33.3187 41.5039 37.2486 36.163 38.1849C30.3342 39.2135 24.2152 35.8639 21.8283 30.3384C20.9712 28.3735 20.7997 27.4899 20.7997 25.0635C20.7997 22.4787 21.0107 21.4369 22.0261 19.327C24.6768 13.7619 30.743 10.7156 36.6773 11.942Z" fill="#00FFD1"/>
<path d="M38.9192 20.013C38.8137 20.0526 37.073 21.7142 35.0685 23.7186L31.4156 27.3584L30.3079 26.277C29.1738 25.1693 28.8968 25.0506 28.3298 25.3539C27.8946 25.5781 27.7231 25.8682 27.71 26.3825C27.71 26.7913 27.8814 27.0023 29.332 28.4529C30.7826 29.9035 31.0068 30.075 31.4024 30.075C31.8244 30.075 32.1805 29.7585 36.1103 25.8154C40.1061 21.8329 40.3698 21.5295 40.3698 21.0944C40.3698 20.3822 39.5522 19.7756 38.9192 20.013Z" fill="#00FFD1"/>
</g>
<defs>
<clipPath id="clip0_1114_3881">
<rect width="67.5193" height="67.5193" fill="white" transform="translate(0.279297 0.0078125)"/>
</clipPath>
</defs>
</svg>
