<svg width="67" height="67" viewBox="0 0 67 67" fill="none" xmlns="http://www.w3.org/2000/svg">
<g clip-path="url(#clip0_1719_1098)">
<path d="M1.37463 0.517868C1.16726 0.582673 0.8562 0.764124 0.68771 0.932615C-0.051058 1.61954 0.000785319 -0.674528 0.000785319 33.2181V64.5055L0.298885 64.9332C0.454415 65.1665 0.752514 65.4905 0.946926 65.6331L1.30983 65.9053H33.1805H65.0512L65.4141 65.6331C66.0751 65.1406 66.3603 64.5833 66.3603 63.7797C66.3603 62.4058 65.5437 61.693 63.9755 61.693H63.12V42.0185C63.12 30.6907 63.0682 22.1365 62.9904 21.8514C62.8608 21.2682 62.5498 20.8016 62.0313 20.4257C61.6814 20.1665 61.4999 20.1535 55.6416 20.1146C49.7445 20.0758 49.6019 20.0887 49.0446 20.3479C48.7076 20.5164 48.3577 20.8145 48.1892 21.0997L47.8911 21.5792L47.8522 41.6426L47.8263 61.693H45.8821H43.938V47.5916V33.4902L43.6529 32.92C43.277 32.1941 42.6938 31.7924 41.8254 31.6887C41.4495 31.6368 38.7018 31.6239 35.7079 31.6498C30.4847 31.6887 30.2514 31.7016 29.8107 31.9609C29.5644 32.1034 29.2275 32.4145 29.0719 32.6607L28.7738 33.0884V47.3842V61.693H26.7649H24.756V52.3094C24.756 45.9974 24.7171 42.7961 24.6134 42.5499C24.3672 41.8888 23.7321 41.3704 22.9933 41.2149C22.5526 41.1242 20.4011 41.0853 16.7073 41.1112C10.4731 41.1501 10.5898 41.1371 9.95471 42.0185L9.65661 42.4462L9.61772 52.0761L9.5918 61.693H6.87003H4.14825V31.7664V1.85283L3.86311 1.42513C3.69462 1.19183 3.42245 0.893733 3.24099 0.751163C2.85217 0.478986 1.89307 0.349378 1.37463 0.517868ZM58.843 43.0294V61.693H55.4732H52.1033V43.0294V24.3658H55.4732H58.843V43.0294ZM39.6609 48.797V61.693H36.3559H33.0509V48.797V35.9009H36.3559H39.6609V48.797ZM20.4789 53.5277V61.693H17.1739H13.8689V53.5277V45.3624H17.1739H20.4789V53.5277Z" fill="#00FFD1"/>
<path d="M48.0863 4.17276C46.9328 4.78192 46.5829 6.3113 47.3735 7.33521C47.8789 7.99621 48.1511 8.08693 49.7064 8.1647L51.1321 8.2295L30.4596 20.5941C19.0929 27.3856 9.63152 33.1143 9.43711 33.3217C8.06326 34.7603 9.26862 37.1581 11.2257 36.8859C11.6664 36.8341 16.2934 34.1123 32.7925 24.2361C44.3406 17.328 53.815 11.6641 53.8409 11.6641C53.8798 11.6641 53.6595 12.1696 53.3614 12.7917C52.5189 14.5544 52.6096 15.5653 53.6854 16.3689C54.4112 16.9133 55.7721 16.7707 56.4201 16.0967C56.8478 15.6431 60.9305 6.9723 61.0212 6.32426C61.112 5.55957 60.7361 4.71712 60.101 4.30237L59.5696 3.95243L54.1261 3.91355L48.6696 3.87466L48.0863 4.17276Z" fill="#00FFD1"/>
</g>
<defs>
<clipPath id="clip0_1719_1098">
<rect width="66.3595" height="66.3595" fill="white"/>
</clipPath>
</defs>
</svg>
