<svg width="68" height="68" viewBox="0 0 68 68" fill="none" xmlns="http://www.w3.org/2000/svg">
<g clip-path="url(#clip0_1114_3892)">
<path d="M3.02129 2.34292C0.647566 4.70346 0.27832 5.13864 0.27832 5.70569C0.27832 6.03538 4.90708 14.2115 5.23677 14.4621C5.34226 14.5544 6.42363 14.8709 7.65005 15.1742L9.86553 15.7281L17.0394 22.902C20.9825 26.845 24.2793 30.0759 24.3452 30.0759C24.4244 30.0759 24.8332 29.7199 25.2684 29.2847L26.0596 28.4934L18.7406 21.1613C13.5844 16.005 11.2634 13.7632 10.8941 13.5917C10.604 13.4599 9.56222 13.1566 8.57317 12.9192L6.7665 12.484L4.90708 9.22672C3.87847 7.44643 3.04766 5.91669 3.04766 5.86394C3.04766 5.79801 3.74659 5.04633 4.60377 4.18915L6.15988 2.63304L9.45672 4.50565C11.2634 5.53426 12.7536 6.39144 12.7667 6.40462C12.7931 6.41781 13.0701 7.42005 13.3866 8.63329L13.9536 10.8488L21.3253 18.2205C25.3739 22.269 28.763 25.5922 28.8289 25.5922C28.9081 25.5922 29.3169 25.2362 29.7521 24.801L30.5433 24.0097L23.3166 16.7831L16.09 9.5564L15.6284 7.71017C15.0482 5.3892 14.8635 4.8617 14.4943 4.63752C14.3229 4.53202 12.4502 3.43747 10.3139 2.22423C7.083 0.378004 6.3445 0.00875664 5.90932 0.00875664C5.4082 0.00875664 5.28952 0.101068 3.02129 2.34292Z" fill="#00FFD1"/>
<path d="M51.7097 0.1931C46.2501 1.3404 42.1093 5.49442 41.0807 10.8749C40.8565 12.0353 40.7905 14.0266 40.9356 15.3058L41.0411 16.163L28.7373 28.4536L16.4335 40.7442L15.6423 40.5991C14.3895 40.3882 11.8839 40.5464 10.4333 40.9288C5.50118 42.208 1.65048 46.2302 0.582301 51.1754C0.213055 52.9425 0.265804 55.725 0.727361 57.4394C1.96697 62.1341 5.44843 65.7079 10.1036 67.0794C11.6992 67.5541 14.8246 67.6728 16.4994 67.3431C23.4096 65.9321 28.1571 59.4834 27.3263 52.626L27.168 51.3864L30.0692 48.4852L32.9836 45.5708L34.3947 46.9818C35.1859 47.7599 35.9376 48.3929 36.0827 48.4061C36.6893 48.472 36.9266 48.3797 37.4937 47.8918C38.219 47.2456 38.6278 47.1269 39.1553 47.4038C39.9334 47.7994 39.9466 48.8544 39.1817 49.527C38.7465 49.9226 38.4959 50.4897 38.5883 50.8985C38.641 51.149 40.9356 53.5228 46.0787 58.6526L53.49 66.0507L54.7428 66.6442C56.3648 67.409 56.9055 67.5277 58.8308 67.5277C60.7562 67.5277 61.2969 67.409 62.9057 66.6442C63.9212 66.1562 64.33 65.8661 65.2267 64.9826C66.4004 63.8089 66.9674 62.9122 67.4686 61.4747C67.7587 60.6439 67.7982 60.3274 67.7982 58.4944C67.7982 56.6482 67.7719 56.358 67.4686 55.4877C66.8224 53.6414 66.6773 53.4832 58.8968 45.6763C51.8152 38.5551 51.4855 38.2518 51.0239 38.2518C50.6415 38.2518 50.4041 38.3705 49.8503 38.8452C49.0063 39.5573 48.5051 39.6233 47.9645 39.0958C47.4633 38.5947 47.5029 37.9881 48.07 37.3682C49.1777 36.1154 49.1381 35.9045 47.3578 34.111L45.9072 32.634L48.848 29.7328L51.7756 26.8184L52.5009 26.937C53.6614 27.1349 56.6286 26.9766 57.8154 26.6601C61.5079 25.6843 64.541 23.2973 66.2817 20.0137C67.5081 17.6927 67.7982 16.4927 67.7982 13.5914C67.7982 10.2287 67.4686 9.30556 66.3344 9.39787C65.8861 9.43744 65.5168 9.75393 62.1541 13.0244L58.4748 16.6114L55.7846 15.7278L53.0943 14.8311L52.1712 12.1013L51.2481 9.3715L54.8351 5.78454C57.2352 3.37125 58.4484 2.0657 58.5143 1.80196C58.5671 1.56458 58.5275 1.27446 58.3957 0.984337C58.2242 0.641472 58.0396 0.509598 57.4857 0.324974C56.5362 0.0216675 52.9097 -0.057457 51.7097 0.1931ZM51.736 5.45485C49.4151 7.78902 48.6766 8.60663 48.6766 8.84401C48.6766 9.35831 51.0503 16.3608 51.3141 16.6245C51.6569 16.9674 58.7649 19.3016 59.1341 19.1961C59.2924 19.1433 60.8089 17.7323 62.5101 16.0575L65.5828 12.998L65.5168 14.1981C65.3981 16.2817 64.8311 17.9301 63.631 19.7368C61.165 23.4688 56.7868 25.2886 52.2372 24.4842C51.5778 24.3655 51.1426 24.3391 50.9184 24.4315C50.4832 24.5897 24.9921 50.0677 24.7943 50.5424C24.6756 50.8325 24.6756 51.149 24.8207 51.9403C26.0866 59.0087 20.8513 65.3518 13.7301 65.3386C6.74079 65.3254 1.43948 58.9296 2.73184 52.0853C3.87914 46.006 9.81345 41.9311 15.8401 43.0784C16.6709 43.2366 17.0137 43.2498 17.2775 43.1311C17.4753 43.052 23.4624 37.1573 30.5967 30.0229L43.5731 17.0465L43.4939 16.2685C43.4412 15.8465 43.3489 15.0552 43.2698 14.5146C43.0456 12.9189 43.4148 10.5979 44.1797 8.93631C45.9072 5.11198 49.8503 2.43495 53.8196 2.39539L54.7955 2.3822L51.736 5.45485ZM45.0632 35.2319L45.8809 36.0363L45.538 36.7221C44.905 37.9617 45.1292 39.5837 46.0919 40.7178C47.0018 41.7992 48.9931 42.1684 50.3382 41.4827L50.9844 41.153L57.4462 47.6148L63.908 54.0766L59.1605 58.8241L54.4131 63.5715L47.9381 57.0965L41.4631 50.6215L41.806 50.0017C42.0961 49.5006 42.1488 49.2237 42.1488 48.4061C42.1488 47.5489 42.0961 47.3115 41.7532 46.6917C41.3048 45.8741 40.474 45.1883 39.6696 44.9642C38.8784 44.7532 37.5992 44.885 36.953 45.2543L36.4123 45.5576L35.5552 44.7136L34.698 43.8564L39.4059 39.1485C42.0038 36.5506 44.1533 34.4275 44.1929 34.4275C44.2193 34.4275 44.6149 34.7967 45.0632 35.2319ZM65.4377 57.2152C66.0048 59.9714 64.3827 63.2418 61.798 64.5342C60.5716 65.1408 58.5407 65.3518 57.1956 65.0089L56.5626 64.8507L60.8221 60.5912C63.1563 58.2438 65.1212 56.358 65.174 56.3976C65.2267 56.424 65.3454 56.7932 65.4377 57.2152Z" fill="#00FFD1"/>
<path d="M33.1813 32.977L20.7852 45.3731L21.5764 46.1643C22.0116 46.5995 22.4204 46.9556 22.4995 46.9556C22.5654 46.9556 28.2096 41.3773 35.0275 34.5595L47.4236 22.1633L46.6324 21.3721C46.1972 20.9369 45.7884 20.5809 45.7093 20.5809C45.6433 20.5809 39.9991 26.1591 33.1813 32.977Z" fill="#00FFD1"/>
<path d="M9.82532 47.4039C9.68026 47.5094 8.74396 48.96 7.75491 50.6084C6.4098 52.8635 5.94824 53.7338 5.94824 54.0635C5.94824 54.38 6.38342 55.2108 7.60985 57.2812C8.53296 58.8241 9.4297 60.2352 9.61433 60.433L9.9572 60.8022H13.8607C17.7509 60.8022 17.7773 60.8022 18.041 60.4989C18.1993 60.3407 19.096 58.9165 20.0455 57.3208C21.2192 55.3559 21.7731 54.3141 21.7731 54.0503C21.7731 53.5888 18.2125 47.5621 17.8169 47.3511C17.6718 47.272 16.0893 47.2193 13.8343 47.2193C10.788 47.2193 10.0495 47.2588 9.82532 47.4039ZM17.7509 51.5843C18.4103 52.692 18.9905 53.6943 19.0565 53.8261C19.1488 54.0108 18.885 54.5514 17.8696 56.2526L16.5641 58.4285H13.8475H11.1309L9.8517 56.3054C9.15277 55.1449 8.58571 54.1294 8.58571 54.0503C8.58571 53.9844 9.16596 52.9558 9.87807 51.7689L11.1572 49.6062H13.8607L16.5641 49.593L17.7509 51.5843Z" fill="#00FFD1"/>
<path d="M46.3684 46.1645L45.5771 46.9557L51.2873 52.6527L56.9842 58.3628L57.7755 57.5716C58.2106 57.1364 58.5667 56.7276 58.5667 56.6484C58.5667 56.477 47.4629 45.3732 47.2915 45.3732C47.2124 45.3732 46.8036 45.7293 46.3684 46.1645Z" fill="#00FFD1"/>
</g>
<defs>
<clipPath id="clip0_1114_3892">
<rect width="67.5193" height="67.5193" fill="white" transform="translate(0.27832 0.0078125)"/>
</clipPath>
</defs>
</svg>
