<svg width="21" height="21" viewBox="0 0 21 21" fill="currentColor" xmlns="http://www.w3.org/2000/svg">
<g clip-path="url(#clip0_1195_3354)">
<path fill-rule="evenodd" clip-rule="evenodd" d="M19.839 14.8792C19.3832 13.9614 18.7827 13.1229 18.0604 12.396C17.8188 12.123 17.5658 11.8603 17.3022 11.6085L17.2703 11.5775C17.1724 11.4827 17.0758 11.3866 16.9804 11.2893C17.9679 9.91598 18.8129 8.4456 19.5022 6.90096L19.5298 6.83896L19.5491 6.77362C19.6404 6.4695 19.7443 5.89142 19.3757 5.36864C18.9937 4.8291 18.3829 4.73192 17.9732 4.73192H16.0907C15.6965 4.71396 15.3068 4.82114 14.9772 5.03814C14.6477 5.25514 14.3952 5.57082 14.2559 5.94001C13.8508 6.90485 13.3436 7.82355 12.7429 8.68043V6.47452C12.7429 6.18968 12.7161 5.71214 12.4103 5.31C12.045 4.82743 11.5164 4.73192 11.1494 4.73192H8.16186C7.77201 4.72295 7.39365 4.86426 7.10513 5.12658C6.8166 5.38891 6.64002 5.75215 6.61195 6.14108L6.60943 6.17878V6.21649C6.60943 6.62281 6.77029 6.92274 6.89931 7.11125C6.95712 7.19586 7.01827 7.27294 7.05765 7.32153L7.06603 7.33242C7.10792 7.38437 7.13556 7.41871 7.16321 7.45725C7.23694 7.55611 7.34166 7.71027 7.37182 8.10738V9.34144C6.77211 8.3372 6.28038 7.2723 5.90485 6.16454L5.89815 6.14611L5.89145 6.12852C5.78924 5.86126 5.62587 5.47253 5.29829 5.17595C4.91626 4.82827 4.46385 4.73192 4.05249 4.73192H2.14233C1.72595 4.73192 1.22411 4.8291 0.849621 5.2237C0.481831 5.61244 0.439941 6.07825 0.439941 6.32456V6.43682L0.4634 6.54574C0.992297 9.00111 2.08221 11.3008 3.64784 13.2648C4.36363 14.3936 5.33539 15.3377 6.48431 16.0207C7.63322 16.7037 8.92694 17.1062 10.2605 17.1957L10.2949 17.1982H10.3301C10.9383 17.1982 11.5725 17.1455 12.0492 16.8279C12.6918 16.399 12.7429 15.7413 12.7429 15.4129V14.4595C12.9079 14.5936 13.1124 14.7728 13.3629 15.0141C13.6661 15.3174 13.9074 15.5805 14.1144 15.81L14.225 15.9323C14.3858 16.1116 14.5441 16.2884 14.6882 16.4333C14.8692 16.6151 15.0929 16.8154 15.3727 16.9637C15.6768 17.1237 15.996 17.1966 16.3345 17.1966H18.2455C18.6485 17.1966 19.2257 17.1011 19.6321 16.6302C20.0744 16.1175 20.0409 15.4883 19.9018 15.0367L19.8767 14.9555L19.839 14.8792ZM15.0468 14.968C14.7872 14.6778 14.5198 14.3945 14.2451 14.1185L14.2425 14.116C13.1057 13.0202 12.5753 12.83 12.2 12.83C11.9998 12.83 11.7794 12.8518 11.6362 13.0311C11.5717 13.1166 11.5294 13.2168 11.513 13.3226C11.4928 13.4455 11.4839 13.5701 11.4862 13.6946V15.4129C11.4862 15.6266 11.451 15.7162 11.3522 15.7815C11.2206 15.8695 10.94 15.9407 10.3376 15.9407C9.19335 15.8629 8.08393 15.5145 7.10052 14.9244C6.11712 14.3342 5.28784 13.5191 4.68084 12.546L4.67414 12.5351L4.66576 12.525C3.20726 10.7097 2.19079 8.5801 1.69663 6.30445C1.69998 6.19554 1.72344 6.12936 1.76198 6.08914C1.80135 6.04725 1.8977 5.98861 2.14233 5.98861H4.05249C4.26446 5.98861 4.37504 6.03552 4.45463 6.10673C4.54344 6.18884 4.62219 6.32707 4.71603 6.57338C5.18519 7.95239 5.81856 9.24259 6.41925 10.191C6.71918 10.6643 7.01409 11.0589 7.2805 11.3379C7.41371 11.477 7.54357 11.5926 7.6684 11.6747C7.7882 11.7534 7.92476 11.8163 8.06551 11.8163C8.13924 11.8163 8.22553 11.8079 8.30847 11.7719C8.39805 11.7323 8.47178 11.6639 8.51792 11.5775C8.60421 11.42 8.62851 11.1879 8.62851 10.8838V8.05795C8.58411 7.37264 8.37717 6.98641 8.1761 6.71246C8.13538 6.65766 8.09348 6.60375 8.05043 6.55076L8.03954 6.53736C8.00381 6.49397 7.96972 6.44925 7.93733 6.40331C7.89609 6.35208 7.87127 6.28959 7.86612 6.22403C7.87269 6.15745 7.90446 6.09591 7.95492 6.05199C8.00538 6.00807 8.07072 5.98509 8.13756 5.98777H11.1494C11.322 5.98777 11.3798 6.02966 11.4091 6.06903C11.451 6.12349 11.4862 6.23659 11.4862 6.47452V10.268C11.4862 10.7188 11.694 11.0237 11.9956 11.0237C12.3424 11.0237 12.5929 10.8134 13.0303 10.3761L13.0378 10.3677L13.0445 10.3602C14.0255 9.16407 14.8271 7.83139 15.4238 6.40415L15.4272 6.3941C15.472 6.268 15.5569 6.16003 15.6688 6.08667C15.7808 6.0133 15.9136 5.97857 16.0471 5.98777H17.9741C18.2355 5.98777 18.3209 6.05479 18.3494 6.09417C18.3787 6.13606 18.3997 6.2257 18.3494 6.40164C17.6612 7.94012 16.8105 9.40059 15.8117 10.7581L15.805 10.7682C15.7087 10.9165 15.6023 11.0807 15.5872 11.2684C15.5704 11.4711 15.6576 11.6546 15.8109 11.8523C15.9223 12.0165 16.1527 12.2419 16.3865 12.4706L16.4082 12.4924C16.6529 12.732 16.9184 12.9917 17.1312 13.243L17.1371 13.2489L17.143 13.2556C17.7775 13.8885 18.3052 14.6202 18.7055 15.4221C18.7691 15.64 18.7306 15.7522 18.6803 15.81C18.6225 15.8771 18.4927 15.9399 18.2463 15.9399H16.3345C16.2042 15.9431 16.0753 15.9128 15.96 15.8519C15.8188 15.7698 15.6906 15.667 15.5797 15.547C15.4599 15.4272 15.33 15.2822 15.1708 15.1054L15.0468 14.968Z" />
</g>
<defs>
<clipPath id="clip0_1195_3354">
<rect width="20.107" height="20.107" fill="white" transform="translate(0.22998 0.749023)"/>
</clipPath>
</defs>
</svg>
