<svg width="21" height="21" viewBox="0 0 21 21" fill="currentColor" xmlns="http://www.w3.org/2000/svg">
<path d="M15.9617 4.86234C15.1936 4.08648 14.2787 3.47133 13.2704 3.05275C12.2621 2.63418 11.1805 2.42056 10.0888 2.42437C5.51443 2.42437 1.78626 6.15253 1.78626 10.7269C1.78626 12.193 2.17165 13.6172 2.89215 14.8739L1.71924 19.1802L6.11764 18.024C7.33244 18.6859 8.69803 19.0378 10.0888 19.0378C14.6631 19.0378 18.3913 15.3096 18.3913 10.7352C18.3913 8.5151 17.5283 6.42901 15.9617 4.86234ZM10.0888 17.6303C8.84884 17.6303 7.63404 17.2952 6.57005 16.6668L6.31871 16.516L3.7048 17.203L4.40017 14.6561L4.23261 14.3964C3.54373 13.2963 3.17795 12.0248 3.17699 10.7269C3.17699 6.9233 6.27682 3.82348 10.0804 3.82348C11.9235 3.82348 13.6578 4.54398 14.9563 5.85093C15.5993 6.49097 16.1089 7.25227 16.4555 8.0907C16.8021 8.92913 16.9788 9.82801 16.9754 10.7352C16.9922 14.5388 13.8923 17.6303 10.0888 17.6303ZM13.8756 12.4695C13.6661 12.3689 12.644 11.8663 12.4597 11.7909C12.267 11.7238 12.133 11.6903 11.9906 11.8914C11.8481 12.1008 11.4544 12.57 11.3371 12.7041C11.2198 12.8465 11.0941 12.8632 10.8847 12.7543C10.6752 12.6538 10.005 12.4276 9.21746 11.7238C8.5975 11.1709 8.18698 10.4923 8.06131 10.2828C7.94402 10.0734 8.04456 9.96448 8.15347 9.85557C8.24563 9.76341 8.36292 9.61261 8.46345 9.49532C8.56399 9.37803 8.60588 9.28587 8.6729 9.15182C8.73992 9.0094 8.70641 8.89211 8.65614 8.79158C8.60588 8.69104 8.18698 7.66894 8.01942 7.25004C7.85187 6.8479 7.67593 6.89817 7.55026 6.88979H7.14812C7.0057 6.88979 6.78787 6.94006 6.59518 7.14951C6.41087 7.35895 5.87468 7.86163 5.87468 8.88373C5.87468 9.90584 6.62031 10.8944 6.72085 11.0285C6.82138 11.1709 8.18698 13.2654 10.2647 14.1618C10.759 14.3796 11.1444 14.5053 11.446 14.5975C11.9403 14.7566 12.3927 14.7315 12.7529 14.6812C13.1551 14.6226 13.9845 14.1786 14.1521 13.6926C14.328 13.2067 14.328 12.7962 14.2693 12.7041C14.2107 12.6119 14.085 12.57 13.8756 12.4695Z"/>
</svg>
